<?xml version="1.0" encoding="UTF-8"?>
<svg version="1.1" xmlns="http://www.w3.org/2000/svg" viewBox="36.0 30.0 383.0 446.0">
<path d="M0 0 C148.83 0 297.66 0 451 0 C451 166.65 451 333.3 451 505 C302.17 505 153.34 505 0 505 C0 338.35 0 171.7 0 0 Z " fill="#ffffff" transform="translate(0,0)"/>
<path d="M0 0 C-0.391875 1.134375 -0.78375 2.26875 -1.1875 3.4375 C-2.3950336 7.04897146 -3.49428561 10.68018276 -4.54199219 14.34106445 C-6.94532904 22.72557002 -9.64324086 30.98772971 -12.4375 39.25 C-15.50068331 48.31860993 -18.33762921 57.40474022 -20.89990234 66.62646484 C-23.09627982 74.48420777 -25.64762917 82.20053803 -28.28857422 89.91845703 C-32.21843677 101.41674395 -35.92062219 112.97344195 -39.37109375 124.625 C-42.03996827 133.61947658 -44.80212079 142.56304484 -47.80664062 151.45141602 C-50.33059162 158.92870453 -52.67780455 166.45800239 -55 174 C-55.66 174 -56.32 174 -57 174 C-57.268125 173.06285156 -57.53625 172.12570313 -57.8125 171.16015625 C-60.37059833 162.30580279 -63.09912855 153.51855242 -65.9375 144.75 C-69.54915485 133.56839815 -72.87110221 122.3254427 -76 111 C-76.34160156 109.76378906 -76.68320313 108.52757812 -77.03515625 107.25390625 C-77.69692995 104.83766274 -78.35119567 102.4197389 -79 100 C-85.92634417 105.81893105 -92.30729597 112.16071185 -98.69140625 118.55859375 C-99.80649011 119.67300218 -100.92172222 120.78726229 -102.03709412 121.90138245 C-104.36253762 124.22536021 -106.68618511 126.55111464 -109.00854492 128.87817383 C-111.96587903 131.84120451 -114.92768128 134.7997217 -117.89085484 137.75691128 C-120.19110598 140.05352632 -122.48894231 142.35254566 -124.78608513 144.65226936 C-125.87645297 145.74329806 -126.9675468 146.83360177 -128.05941963 147.92312431 C-134.95679707 154.7806874 -134.95679707 154.7806874 -141.48681641 161.98461914 C-146.28324586 167.58268524 -151.5618776 172.72633936 -156.76953125 177.9375 C-157.89823956 179.06942728 -159.02687498 180.20142724 -160.15544128 181.33349609 C-162.50445218 183.68845436 -164.85547933 186.0413781 -167.20776367 188.39306641 C-170.22694606 191.41214631 -173.23913932 194.43810004 -176.24969959 197.46577454 C-178.57020986 199.79736466 -180.89521153 202.12443488 -183.22153282 204.45022583 C-184.33515655 205.56503157 -185.44715457 206.6814637 -186.55750465 207.79953003 C-188.10112345 209.35288657 -189.6508759 210.89985016 -191.20239258 212.4453125 C-192.08284744 213.32719238 -192.96330231 214.20907227 -193.87043762 215.11767578 C-196 217 -196 217 -198 217 C-192.38141716 223.66562671 -186.30515542 229.837313 -180.1394043 235.98999023 C-179.05768042 237.07307175 -177.97616883 238.15636532 -176.89485168 239.23985291 C-173.98019375 242.15903865 -171.06241939 245.07509013 -168.1439054 247.9904201 C-165.08440872 251.04737292 -162.02736623 254.10677848 -158.96992493 257.16578674 C-153.84331799 262.29420781 -148.71461729 267.42052789 -143.5847168 272.5456543 C-137.65069716 278.47421533 -131.72031202 284.4063937 -125.79176778 290.34042972 C-120.69538675 295.44134268 -115.59706728 300.54031203 -110.49710971 305.63764912 C-107.45338718 308.67981156 -104.41034704 311.72264832 -101.36905479 314.76724052 C-98.5157285 317.62344725 -95.65998283 320.47721233 -92.80232048 323.32908058 C-91.75250661 324.37756854 -90.70354956 325.42691518 -89.6554985 326.47716522 C-88.22911499 327.90626632 -86.79936752 329.33200755 -85.36943054 330.7575531 C-84.56918803 331.55741858 -83.76894552 332.35728407 -82.94445324 333.1813879 C-81.12470015 335.0561265 -81.12470015 335.0561265 -79 336 C-78.89945313 335.22398437 -78.79890625 334.44796875 -78.6953125 333.6484375 C-77.78077893 328.84970518 -76.33233575 324.28327665 -74.875 319.625 C-72.28141398 311.2284596 -69.75735142 302.81606602 -67.3125 294.375 C-64.06478014 283.18473931 -60.74140012 272.03713035 -57 261 C-56.34 261 -55.68 261 -55 261 C-53.81215859 264.70822406 -52.62476337 268.41659083 -51.4375 272.125 C-51.07615967 273.25341309 -50.71481934 274.38182617 -50.3425293 275.54443359 C-48.58425581 281.03812469 -46.82897646 286.53270438 -45.0859375 292.03125 C-44.64109009 293.43431396 -44.64109009 293.43431396 -44.18725586 294.86572266 C-43.60451983 296.70387018 -43.02199997 298.54208625 -42.43969727 300.38037109 C-40.80531938 305.52342635 -39.11562796 310.64198898 -37.375 315.75 C-35.62591056 320.94066347 -34.10786539 326.1511031 -32.6875 331.4375 C-30.43558954 339.80500023 -27.71940547 347.98665033 -24.93994141 356.19189453 C-23.02354315 361.86894255 -21.19775318 367.54843055 -19.5625 373.3125 C-17.08927832 382.00838651 -14.19277251 390.55933865 -11.29711914 399.12231445 C-9.05694941 405.76030918 -6.91802579 412.41905128 -4.87719727 419.12109375 C-4.17631408 421.42134829 -3.46338283 423.71638105 -2.734375 426.0078125 C-2.40953125 427.03648437 -2.0846875 428.06515625 -1.75 429.125 C-1.41484375 430.17945313 -1.0796875 431.23390625 -0.734375 432.3203125 C0 435 0 435 0 438 C-4.36605899 437.55448378 -7.86223138 436.6994481 -11.83813477 434.87084961 C-14.5616157 433.77376813 -17.31998398 433.02879124 -20.15234375 432.25390625 C-28.69121226 429.84709164 -37.09047177 427.07118379 -45.5 424.25 C-46.28625763 423.98743408 -47.07251526 423.72486816 -47.88259888 423.4543457 C-58.26633631 419.98568259 -68.61594279 416.44410467 -78.86328125 412.58691406 C-84.37782664 410.52360142 -89.95055009 408.75747323 -95.5847168 407.04882812 C-101.31532761 405.28896652 -107.00031092 403.39465196 -112.6875 401.5 C-114.40549805 400.93345703 -114.40549805 400.93345703 -116.15820312 400.35546875 C-121.07346766 398.71985757 -125.9452893 397.0651565 -130.73046875 395.078125 C-138.20032903 392.02010117 -145.94117778 389.70350957 -153.625 387.25 C-155.2175523 386.7386062 -156.81000108 386.22688991 -158.40234375 385.71484375 C-162.26704644 384.47284347 -166.13312151 383.23520859 -170 382 C-170 381.01 -170 380.02 -170 379 C-169.17089111 378.73372803 -168.34178223 378.46745605 -167.48754883 378.19311523 C-163.59548863 376.94241309 -159.70382761 375.69047939 -155.8125 374.4375 C-155.10705048 374.21035309 -154.40160095 373.98320618 -153.67477417 373.74917603 C-144.11994684 370.6707743 -134.5828667 367.54593663 -125.06689453 364.34912109 C-117.41295924 361.78544683 -109.71633057 359.36837869 -102 357 C-102 354.12730878 -103.62461364 353.1377746 -105.55954361 351.19161797 C-106.08871258 350.66963892 -106.61788155 350.14765987 -107.16308594 349.60986328 C-107.99613062 348.77637202 -107.99613062 348.77637202 -108.84600449 347.92604256 C-110.72075721 346.05268631 -112.60257448 344.18658715 -114.484375 342.3203125 C-115.82470165 340.98382142 -117.16457568 339.6468763 -118.50402832 338.30950928 C-121.39539372 335.42448071 -124.2898413 332.54259232 -127.18664551 329.6630249 C-131.76234503 325.11427808 -136.33048877 320.55799505 -140.89746094 316.00048828 C-150.59243139 306.32775709 -160.29579496 296.6634652 -170 287 C-180.47468421 276.56929022 -190.94795939 266.13719039 -201.4115181 255.69531822 C-205.95647263 251.16036124 -210.50626822 246.63033356 -215.05975342 242.10394287 C-217.88607991 239.29248149 -220.70830494 236.47693101 -223.52940369 233.66022491 C-224.84349009 232.34989898 -226.15931212 231.04131114 -227.47694397 229.73455048 C-229.26819745 227.95761807 -231.05328739 226.17471955 -232.83691406 224.39013672 C-233.36608303 223.86815767 -233.895252 223.34617863 -234.44045639 222.80838203 C-238 219.22818558 -238 219.22818558 -238 217 C-236.65561008 215.67449856 -236.65561008 215.67449856 -234.72108459 214.08799744 C-229.00623664 209.22252969 -223.7601597 203.90021187 -218.46264648 198.59204102 C-217.3203355 197.45108756 -216.17781244 196.3103464 -215.03509521 195.1697998 C-211.9522865 192.09152358 -208.87261767 189.01012434 -205.79366565 185.92799115 C-202.5593462 182.69112639 -199.32257214 179.45671761 -196.0861969 176.22190857 C-190.65340314 170.79093018 -185.22271217 165.35785582 -179.79321289 159.92358398 C-173.5307569 153.6556866 -167.26470679 147.3913996 -160.99677795 141.12897545 C-155.59937442 135.73612107 -150.20393605 130.34130641 -144.81011254 124.94487137 C-141.59560994 121.72881591 -138.3804502 118.51342522 -135.16351128 115.29980659 C-132.13819403 112.27739429 -129.11536458 109.25251502 -126.09437561 106.22577667 C-124.99034966 105.12043713 -123.88548799 104.01593153 -122.77969551 102.91235924 C-117.48884668 97.63114855 -112.25974952 92.33888703 -107.41705418 86.63735867 C-105.3932259 84.29889284 -103.21941042 82.15215556 -101 80 C-101.73347656 80.03609375 -102.46695313 80.0721875 -103.22265625 80.109375 C-106.12352232 79.99513555 -107.81163775 79.43323082 -110.4375 78.25 C-114.56703329 76.50217965 -118.67513119 75.18592703 -123 74 C-127.96642541 72.62995161 -132.6232586 71.00176704 -137.36328125 69.00390625 C-141.75209899 67.33290453 -146.28884162 66.18540576 -150.8125 64.9375 C-153.22935605 64.22665999 -155.4118346 63.48780711 -157.6875 62.4375 C-162.31797589 60.4280482 -167.11702238 59.24502684 -172 58 C-172 57.34 -172 56.68 -172 56 C-167.53900707 54.50464338 -163.07730607 53.0114238 -158.61499023 51.52001953 C-157.1030842 51.01439429 -155.59135943 50.50822668 -154.07983398 50.00146484 C-145.68101519 47.18606259 -137.2760999 44.42153641 -128.79663086 41.85595703 C-122.49933659 39.92856168 -116.26247857 37.82031043 -110.06640625 35.58984375 C-109.36290039 35.3376709 -108.65939453 35.08549805 -107.93457031 34.82568359 C-106.59764321 34.34486973 -105.26213569 33.86007207 -103.92871094 33.36962891 C-99.03367974 31.608242 -94.07104047 30.13326378 -89.07421875 28.69140625 C-80.74433421 26.27785987 -72.55011885 23.5388792 -64.35891724 20.69400024 C-60.25135272 19.26788139 -56.13909784 17.85539066 -52.02734375 16.44140625 C-50.77847633 16.01147621 -50.77847633 16.01147621 -49.50437927 15.57286072 C-40.87302051 12.60492347 -32.22117084 9.69962648 -23.5625 6.8125 C-22.86890381 6.58052917 -22.17530762 6.34855835 -21.46069336 6.10955811 C-19.4964935 5.45284707 -17.53158948 4.79829293 -15.56640625 4.14453125 C-14.46240479 3.77690674 -13.35840332 3.40928223 -12.22094727 3.03051758 C-2.74887467 0 -2.74887467 0 0 0 Z " fill="none" transform="translate(278,34)"/>
<path d="M0 0 C0.66 0 1.32 0 2 0 C3.27908421 1.29853058 3.27908421 1.29853058 4.82948303 3.1973877 C10.12010269 9.41065129 15.95345501 15.08485556 21.72827148 20.84179688 C23.01029088 22.12353378 24.29208928 23.40549175 25.57368469 24.68765259 C29.03373481 28.14798826 32.49684771 31.60524364 35.96053958 35.06193352 C39.58715072 38.68227074 43.21090843 42.30546184 46.8349762 45.92834473 C53.68926874 52.77953583 60.54610522 59.62817498 67.40387064 66.47588968 C75.21481501 74.27563598 83.02290195 82.07824011 90.83075607 89.88107967 C106.88400441 105.92389052 122.94081864 121.96312838 139 138 C137.39798982 141.97609229 134.62773821 144.6463416 131.6343689 147.60614014 C131.08138048 148.1608374 130.52839206 148.71553467 129.95864642 149.28704095 C128.10394203 151.14504033 126.24217837 152.99579984 124.38037109 154.84667969 C123.04961421 156.17687246 121.7192975 157.50750573 120.38938904 158.83854675 C116.77631922 162.45219109 113.15711004 166.05962986 109.53678465 169.66600323 C105.75489211 173.43540495 101.97865137 177.21045994 98.20181274 180.98492432 C91.04831172 188.13220573 83.88972709 195.27437301 76.72931159 202.4147265 C68.57796097 210.5437331 60.43227932 218.6784101 52.28707385 226.81357336 C35.53102552 243.54870879 18.76785452 260.27669444 2 277 C1.01 276.67 0.02 276.34 -1 276 C-1.98156884 273.31864122 -2.77768954 270.75131467 -3.5 268 C-3.9282003 266.44360049 -4.35787556 264.88760598 -4.7890625 263.33203125 C-4.9943457 262.58260254 -5.19962891 261.83317383 -5.41113281 261.06103516 C-6.12527136 258.56155026 -6.9809114 256.12778768 -7.875 253.6875 C-9.26548948 249.12978449 -9.26548948 249.12978449 -8 246 C-6.22151089 243.8523674 -6.22151089 243.8523674 -3.85557556 241.49481201 C-2.96230057 240.59741302 -2.06902557 239.70001404 -1.14868164 238.77542114 C-0.15126114 237.78861772 0.84630227 236.80195874 1.84399414 235.81542969 C2.88910764 234.77116241 3.93356098 233.72623408 4.97740173 232.68069458 C7.8135483 229.84368643 10.65885691 227.01603018 13.50587773 224.18994045 C16.47943971 221.23511795 19.44452187 218.2718114 22.4105072 215.30938721 C28.02854001 209.70068287 33.65417718 204.09967041 39.28257412 198.50136876 C45.68983216 192.1276297 52.08858517 185.74538144 58.48663151 179.36239767 C71.64830097 166.23209543 84.82063414 153.11253841 98 140 C96.49863621 136.48263877 94.47706304 134.24317185 91.76655579 131.56642151 C90.87887512 130.68466248 89.99119446 129.80290344 89.07661438 128.89442444 C88.09061436 127.92507049 87.10454325 126.95578885 86.1184082 125.98657227 C85.08154892 124.96010196 84.04517371 123.93314249 83.00924683 122.9057312 C80.77958367 120.69593355 78.54704954 118.48909181 76.31240273 116.28433418 C72.78104792 112.79911142 69.25946404 109.30412924 65.73979187 105.80711365 C55.73077371 95.86496484 45.713553 85.9311872 35.67553711 76.01831055 C30.13029926 70.54203969 24.59577311 65.05518082 19.07303113 59.55622143 C15.57546064 56.07487718 12.0651266 52.60710379 8.54498827 49.1485883 C6.3612268 46.99677285 4.19010849 44.83254844 2.02245712 42.66451645 C1.01299199 41.65990685 -0.00165308 40.66047226 -1.02170372 39.66661263 C-2.4106777 38.31184071 -3.77970098 36.9367028 -5.14750671 35.56056213 C-5.92013698 34.79606027 -6.69276724 34.0315584 -7.48881054 33.24388981 C-9 31 -9 31 -8.80865192 28.44225979 C-8.54179679 27.63631406 -8.27494165 26.83036833 -8 26 C-7.46246094 24.19982422 -7.46246094 24.19982422 -6.9140625 22.36328125 C-6.48680092 21.01225124 -6.0570177 19.66201667 -5.625 18.3125 C-5.17533742 16.89206751 -4.72611854 15.47149448 -4.27734375 14.05078125 C-4.05933105 13.36193848 -3.84131836 12.6730957 -3.61669922 11.96337891 C-2.36820578 7.98856331 -1.18127725 3.99521412 0 0 Z " fill="none" transform="translate(276,113)"/>
</svg>
