<?xml version="1.0" encoding="UTF-8"?>
<svg version="1.1" xmlns="http://www.w3.org/2000/svg" viewBox="36.0 30.0 383.0 446.1">
<path d="M0 0 C148.83 0 297.66 0 451 0 C451 166.65 451 333.3 451 505 C302.17 505 153.34 505 0 505 C0 338.35 0 171.7 0 0 Z M276 34 C275.23104904 34.25705719 274.46209808 34.51411438 273.66984558 34.77896118 C263.84324292 38.06350905 254.01574551 41.34537137 244.1875 44.625 C243.00546431 45.01943991 243.00546431 45.01943991 241.7995491 45.4218483 C221.51859354 52.18864399 201.22880032 58.92341275 180.88943481 65.51303101 C164.50647279 70.82087006 148.16469631 76.24713162 131.83496094 81.71630859 C126.30864956 83.56689735 120.77929433 85.40834708 115.25 87.25 C113.6093597 87.79682911 111.96873261 88.34369783 110.328125 88.890625 C109.22984375 89.25671875 108.1315625 89.6228125 107 90 C107 90.66 107 91.32 107 92 C107.96897217 92.31114746 108.93794434 92.62229492 109.9362793 92.94287109 C114.5212507 94.41643635 119.10457504 95.89508389 123.6875 97.375 C124.51812958 97.64300415 125.34875916 97.9110083 126.20455933 98.18713379 C135.08746821 101.05654691 143.95838141 103.95097998 152.7734375 107.0234375 C153.44367447 107.25690887 154.11391144 107.49038025 154.80445862 107.73092651 C157.94410185 108.82749014 161.0794752 109.93448824 164.21166992 111.05224609 C165.31873291 111.44234863 166.4257959 111.83245117 167.56640625 112.234375 C168.52490479 112.57694336 169.48340332 112.91951172 170.47094727 113.27246094 C173.20208027 114.18430706 173.20208027 114.18430706 177 114 C176.195625 114.763125 175.39125 115.52625 174.5625 116.3125 C171.83200976 118.79430898 171.83200976 118.79430898 171 122 C170.34 122 169.68 122 169 122 C167.6012896 123.37893468 167.6012896 123.37893468 166.12461853 125.24328613 C161.07089126 131.17885473 155.5229746 136.60877319 150.00610352 142.10742188 C148.80290083 143.31034202 147.59991922 144.51348333 146.3971405 145.71682739 C143.15195923 148.96229404 139.90371735 152.20468137 136.65489316 155.44650078 C133.25249825 158.8426187 129.8529597 162.24159347 126.45310974 165.64025879 C120.02380912 172.06645886 113.591965 178.49010687 107.15919012 184.91282892 C99.83191112 192.22890704 92.507492 199.54784546 85.18330491 206.8670187 C70.12537042 221.91451772 55.06387021 236.95844332 40 252 C45.76919257 259.05834344 52.25877892 265.39204622 58.70654297 271.82006836 C59.9982669 273.1115099 61.28977004 274.40317231 62.58106995 275.69503784 C66.0721698 279.18642364 69.5663359 282.67472587 73.06107473 286.16246867 C76.71838497 289.81351152 80.37284803 293.46740196 84.02761841 297.12098694 C90.94215234 304.03241752 97.85923059 310.94129583 104.7772342 317.84925324 C112.65586575 325.71669268 120.53164507 333.58698472 128.40719008 341.45751369 C144.60162923 357.64151102 160.799634 373.82193568 177 390 C172.23086784 391.8090627 167.46218574 393.55143338 162.61572266 395.14477539 C161.42153717 395.53850845 160.22735168 395.93224152 158.99697876 396.33790588 C158.05972395 396.64583163 158.05972395 396.64583163 157.1035347 396.9599781 C155.12734319 397.60972917 153.15208828 398.26225506 151.17709351 398.91563416 C145.5682196 400.77109755 139.95877474 402.62477724 134.34619141 404.46899414 C130.89879772 405.60198112 127.45336977 406.74077327 124.00916672 407.88342094 C122.699738 408.31659647 121.3895809 408.74757658 120.07869339 409.17631721 C118.25328696 409.77357459 116.43052776 410.37890462 114.60791016 410.98461914 C113.05192612 411.49733116 113.05192612 411.49733116 111.46450806 412.020401 C108.87448073 412.86157605 108.87448073 412.86157605 107 415 C114.90213831 418.34639317 122.99026323 421.06592894 131.13574219 423.74316406 C135.14370918 425.0610149 139.14805562 426.38977019 143.15234375 427.71875 C144.38547806 428.12782593 144.38547806 428.12782593 145.64352417 428.54516602 C153.94897207 431.30572655 162.22564241 434.14789171 170.5 437 C185.69451678 442.23167103 200.9281719 447.3381033 216.18077087 452.39761353 C222.11565768 454.36852177 228.04485341 456.3560862 233.9725647 458.34846497 C238.66979974 459.92694946 243.36819074 461.5019777 248.06665039 463.07681274 C250.39041356 463.85665445 252.71365985 464.63803811 255.03637695 465.42098999 C258.29502371 466.51914598 261.55549259 467.61172217 264.81640625 468.703125 C266.2950692 469.20375206 266.2950692 469.20375206 267.80360413 469.7144928 C268.70960861 470.0165715 269.6156131 470.31865021 270.54907227 470.62988281 C271.73521873 471.02859589 271.73521873 471.02859589 272.94532776 471.43536377 C275.1269861 472.13249128 275.1269861 472.13249128 278 472 C275.64215566 461.27783196 272.1766109 450.91085427 268.79577637 440.47845459 C266.97952853 434.87144927 265.17771431 429.25980578 263.375 423.6484375 C263.00558289 422.49928864 262.63616577 421.35013977 262.2555542 420.16616821 C258.6979132 409.08643153 255.21187249 397.9849773 251.75 386.875 C251.45619446 385.93254425 251.16238892 384.9900885 250.85968018 384.01907349 C249.62189701 380.04812176 248.3845993 376.07701938 247.14810181 372.10566711 C243.1692877 359.32717789 239.17684154 346.55294781 235.18466187 333.7786293 C233.82106842 329.41531588 232.45789223 325.05187245 231.09512138 320.68830204 C230.24596669 317.96946142 229.39657928 315.25069353 228.54713821 312.53194237 C227.95778717 310.64540078 227.36870694 308.7587746 226.77963257 306.87214661 C226.42712433 305.74411118 226.07461609 304.61607574 225.71142578 303.45385742 C225.40359161 302.46834396 225.09575745 301.48283051 224.77859497 300.467453 C224.20188401 298.63979261 223.60604769 296.81814307 223 295 C222.34 295 221.68 295 221 295 C218.27812841 304.05745891 215.55724784 313.11521475 212.83763218 322.17335129 C211.57477802 326.37938602 210.31158266 330.58531765 209.04760742 334.79101562 C207.82783338 338.84968593 206.60895577 342.90862445 205.39069939 346.96775055 C204.92573911 348.51638628 204.46045584 350.06492508 203.99484444 351.61336517 C203.34279435 353.78202682 202.69189317 355.95103017 202.04125977 358.12011719 C201.67041763 359.35477722 201.2995755 360.58943726 200.91749573 361.86151123 C200.2239172 364.2340437 199.57030493 366.59577928 199 369 C195.32728195 367.45592568 192.99138795 365.23806501 190.19110107 362.43161011 C189.72215841 361.96437629 189.25321574 361.49714247 188.77006269 361.01575005 C187.20226963 359.45124735 185.64172509 357.87971104 184.08105469 356.30810547 C182.95775589 355.18424246 181.83401637 354.06081979 180.70986938 352.93780518 C177.66025431 349.88876422 174.6168476 346.83359346 171.57450771 343.77729559 C168.39368113 340.58397165 165.20719484 337.39630564 162.02130127 334.20803833 C155.9896205 328.17013988 149.96305637 322.12716099 143.938308 316.08234608 C137.07892998 309.20061807 130.21387619 302.3245641 123.3483367 295.44898391 C109.22589409 281.30563276 95.11060433 267.15516138 81 253 C84.70669747 248.57518838 88.52613649 244.33476116 92.63818359 240.2800293 C93.16575256 239.75552689 93.69332153 239.23102448 94.23687744 238.69062805 C95.36847043 237.56612285 96.50119306 236.44275343 97.63496017 235.32044029 C99.42769076 233.54525173 101.21672398 231.76641142 103.00479126 229.98652649 C108.08404725 224.93160896 113.16908289 219.88253376 118.25830078 214.83764648 C121.38167246 211.74097713 124.50022057 208.63951853 127.61580276 205.5350132 C128.80290912 204.35412681 129.99191098 203.17514282 131.18281174 201.99808311 C132.83913057 200.36087094 134.48929867 198.71769187 136.13818359 197.07299805 C136.6336972 196.58624603 137.12921082 196.09949402 137.63973999 195.59799194 C140.26502561 193.24917602 140.26502561 193.24917602 141 190 C141.5775 189.773125 142.155 189.54625 142.75 189.3125 C145.56427613 187.67083893 147.02737733 185.56440947 149 183 C149.66 182.67 150.32 182.34 151 182 C151 181.34 151 180.68 151 180 C151.66 180 152.32 180 153 180 C154.51077882 178.5114227 154.51077882 178.5114227 156.08081055 176.55249023 C160.07436955 171.85931931 164.34558922 167.51008666 168.70703125 163.16015625 C169.51363693 162.35259384 170.32024261 161.54503143 171.15129089 160.71299744 C172.84173886 159.02187355 174.53343195 157.33199344 176.22631836 155.64331055 C178.8258748 153.04915298 181.41999675 150.44964575 184.01367188 147.84960938 C185.66113742 146.20280389 187.30891274 144.55630824 188.95703125 142.91015625 C189.73407913 142.13108414 190.51112701 141.35201202 191.3117218 140.54933167 C192.02974472 139.83446091 192.74776764 139.11959015 193.48754883 138.38305664 C194.1192952 137.75210587 194.75104156 137.12115509 195.40193176 136.47108459 C197 135 197 135 199 134 C199.25144775 135.225979 199.50289551 136.45195801 199.76196289 137.71508789 C201.10968059 143.76687928 202.95800482 149.64485473 204.80859375 155.55859375 C205.1759816 156.74292496 205.54336945 157.92725616 205.92189026 159.1474762 C207.09038141 162.91187728 208.26378781 166.67472391 209.4375 170.4375 C210.6065496 174.19703803 211.7745921 177.95688764 212.94239807 181.71681213 C213.66713539 184.04892847 214.39278054 186.38076295 215.11949158 188.71226501 C217.11838794 195.13024115 219.08442315 201.55664474 221 208 C221.66 208 222.32 208 223 208 C234.33615671 172.93872617 245.57645346 137.85004015 256.62443542 102.69668579 C258.96168651 95.26959974 261.32288458 87.8504374 263.70013428 80.43608093 C265.31578912 75.39686351 266.9223546 70.35475128 268.5289917 65.31265259 C269.29606005 62.91237647 270.06672273 60.51324579 270.84112549 58.11532593 C271.90726607 54.81283868 272.96085718 51.50659372 274.01171875 48.19921875 C274.33153214 47.21981323 274.65134552 46.24040771 274.98085022 45.23132324 C275.26391525 44.33216187 275.54698029 43.43300049 275.83862305 42.5065918 C276.08855515 41.72809372 276.33848724 40.94959564 276.59599304 40.14750671 C277.04502872 37.76064895 276.7610637 36.28396179 276 34 Z M276 114 C274.68643178 117.76741573 273.38682285 121.53933031 272.09985352 125.31591797 C271.66028974 126.59945067 271.21696119 127.88170057 270.76977539 129.16259766 C270.12694276 131.00600426 269.4988278 132.85452238 268.87109375 134.703125 C268.48880615 135.81333008 268.10651855 136.92353516 267.71264648 138.06738281 C266.9627151 141.15343138 266.89324854 142.11003448 268 145 C269.80433622 147.24833982 269.80433622 147.24833982 272.14442444 149.50518799 C273.03769943 150.40258698 273.93097443 151.29998596 274.85131836 152.22457886 C275.84873886 153.21138228 276.84630227 154.19804126 277.84399414 155.18457031 C278.88910764 156.22883759 279.93356098 157.27376592 280.97740173 158.31930542 C283.8135483 161.15631357 286.65885691 163.98396982 289.50587773 166.81005955 C292.47943971 169.76488205 295.44452187 172.7281886 298.4105072 175.69061279 C304.02854001 181.29931713 309.65417718 186.90032959 315.28257412 192.49863124 C321.68983216 198.8723703 328.08858517 205.25461856 334.48663151 211.63760233 C347.64830097 224.76790457 360.82063414 237.88746159 374 251 C372.49956429 254.5169031 370.48098042 256.74861406 367.76655579 259.42012024 C366.87887512 260.29898895 365.99119446 261.17785767 365.07661438 262.08335876 C364.09060645 263.04953105 363.10453561 264.01563913 362.1184082 264.98168945 C361.08153475 266.00489885 360.04515989 267.02861371 359.00924683 268.05279541 C356.77946985 270.25593197 354.54692068 272.45620762 352.31240273 274.65453529 C348.78020313 278.1310432 345.2588508 281.61839728 341.73979187 285.10820007 C340.53455202 286.30315259 339.32929926 287.4980921 338.12403393 288.69301891 C337.52053596 289.29134576 336.91703799 289.88967261 336.2952522 290.50613058 C328.10169703 298.62758858 319.89888492 306.73951652 311.67553711 314.83081055 C306.1265351 320.29087737 300.59184455 325.76501817 295.07303113 331.25560158 C292.152195 334.16027904 289.22435377 337.05704282 286.27871132 339.93657875 C283.50940681 342.64384035 280.75916405 345.36907064 278.02245712 348.10926819 C277.01473649 349.1115911 276.00012791 350.10704312 274.97829628 351.09497643 C268.91279389 356.53941761 268.91279389 356.53941761 266.85366821 363.96075439 C267.42110245 365.46518097 267.42110245 365.46518097 268 367 C268.27980713 367.9892749 268.55961426 368.9785498 268.84790039 369.99780273 C269.17781982 370.96661377 269.50773926 371.9354248 269.84765625 372.93359375 C270.38422852 374.52397461 270.38422852 374.52397461 270.93164062 376.14648438 C271.30482422 377.23251953 271.67800781 378.31855469 272.0625 379.4375 C272.62807617 381.1071582 272.62807617 381.1071582 273.20507812 382.81054688 C274.13128335 385.54226609 275.06305809 388.27194861 276 391 C283.09278331 385.20541759 289.45364293 378.67956366 295.91186523 372.20166016 C297.21315887 370.90008413 298.51467337 369.59872889 299.81639099 368.2975769 C303.33463541 364.77961844 306.84979619 361.25859351 310.36439776 357.73699617 C314.04346798 354.05165887 317.7253855 350.36916845 321.40699768 346.68637085 C328.37155215 339.71871294 335.33355437 332.74851066 342.29463583 325.77738321 C350.22253376 317.83829345 358.15328405 309.90205568 366.08427131 301.96605229 C382.39268265 285.64719894 398.69752136 269.32477994 415 253 C413.39790007 249.0287108 410.63471537 246.35502691 407.64782715 243.39385986 C407.09624986 242.8391626 406.54467257 242.28446533 405.97638083 241.71295905 C404.12635836 239.8549573 402.26926674 238.00418839 400.41210938 236.15332031 C399.08461146 234.82311258 397.75753946 233.49247969 396.43086243 232.16145325 C392.8261373 228.54760264 389.215105 224.9401163 385.60264778 221.33399677 C381.82760683 217.56401285 378.0574406 213.78915916 374.28649902 210.01507568 C367.95484878 203.67978583 361.61899044 197.34872738 355.28076172 191.02001953 C347.94360603 183.69375775 340.61369597 176.36030591 333.28749037 169.02309537 C327.0040967 162.73063989 320.71683154 156.44207268 314.42628527 150.15676761 C310.66603747 146.3996444 306.90716962 142.64116743 303.15177917 138.87918854 C299.62362393 135.3452762 296.09065096 131.81625362 292.55382347 128.29102135 C291.2531929 126.99304576 289.95428063 125.69334584 288.65717506 124.39184761 C286.89340462 122.62265347 285.12365775 120.85967011 283.35217285 119.09820557 C282.83408475 118.57565603 282.31599666 118.05310648 281.78220892 117.51472211 C279.34862766 114.79696175 279.34862766 114.79696175 276 114 Z " fill="#ffffff" transform="translate(0,0)"/>
</svg>
