<?xml version="1.0" encoding="UTF-8"?>
<svg version="1.1" xmlns="http://www.w3.org/2000/svg" viewBox="132.0 128.0 1118.1 446.1">
<path d="M0 0 C464.64 0 929.28 0 1408 0 C1408 232.32 1408 464.64 1408 704 C943.36 704 478.72 704 0 704 C0 471.68 0 239.36 0 0 Z M372 132 C371.23104904 132.25705719 370.46209808 132.51411438 369.66984558 132.77896118 C359.84324292 136.06350905 350.01574551 139.34537137 340.1875 142.625 C339.00546431 143.01943991 339.00546431 143.01943991 337.7995491 143.4218483 C317.51859354 150.18864399 297.22880032 156.92341275 276.88943481 163.51303101 C260.50647279 168.82087006 244.16469631 174.24713162 227.83496094 179.71630859 C222.30864956 181.56689735 216.77929433 183.40834708 211.25 185.25 C209.6093597 185.79682911 207.96873261 186.34369783 206.328125 186.890625 C205.22984375 187.25671875 204.1315625 187.6228125 203 188 C203 188.66 203 189.32 203 190 C203.96897217 190.31114746 204.93794434 190.62229492 205.9362793 190.94287109 C210.5212507 192.41643635 215.10457504 193.89508389 219.6875 195.375 C220.51812958 195.64300415 221.34875916 195.9110083 222.20455933 196.18713379 C231.08746821 199.05654691 239.95838141 201.95097998 248.7734375 205.0234375 C249.44367447 205.25690887 250.11391144 205.49038025 250.80445862 205.73092651 C253.94410185 206.82749014 257.0794752 207.93448824 260.21166992 209.05224609 C261.31873291 209.44234863 262.4257959 209.83245117 263.56640625 210.234375 C264.52490479 210.57694336 265.48340332 210.91951172 266.47094727 211.27246094 C269.20208027 212.18430706 269.20208027 212.18430706 273 212 C272.28923939 212.70059445 271.57847878 213.40118891 270.84617996 214.1230135 C267.95985526 217.00945328 265.20957292 220.01479499 262.46112061 223.03178406 C256.34962823 229.6916513 250.02363513 236.11176293 243.62207031 242.49145508 C242.43783404 243.67540829 241.25381988 244.8595837 240.07000732 246.04396057 C236.89949877 249.21475245 233.72594803 252.38248269 230.55178165 255.54961228 C227.2187994 258.87628257 223.88870708 262.20584339 220.55828857 265.53507996 C214.27082333 271.81945477 207.98081667 278.10127932 201.68986011 284.38215894 C194.51964094 291.54114535 187.35230953 298.70301999 180.18520212 305.86512148 C165.45997998 320.57993113 150.7311908 335.29116582 136 350 C141.76919257 357.05834344 148.25877892 363.39204622 154.70654297 369.82006836 C155.9982669 371.1115099 157.28977004 372.40317231 158.58106995 373.69503784 C162.0721698 377.18642364 165.5663359 380.67472587 169.06107473 384.16246867 C172.71838497 387.81351152 176.37284803 391.46740196 180.02761841 395.12098694 C186.94215234 402.03241752 193.85923059 408.94129583 200.7772342 415.84925324 C208.65586575 423.71669268 216.53164507 431.58698472 224.40719008 439.45751369 C240.60162923 455.64151102 256.799634 471.82193568 273 488 C268.12850754 489.84729295 263.25304677 491.62348243 258.30859375 493.26831055 C257.69295059 493.47357361 257.07730743 493.67883667 256.44300842 493.89031982 C254.44164385 494.55721222 252.43958312 495.22198695 250.4375 495.88671875 C249.03641447 496.35312448 247.63537352 496.81966415 246.234375 497.28633118 C242.57211816 498.50581936 238.90926403 499.7235035 235.24627686 500.9407959 C231.49845317 502.18664202 227.75120507 503.43421689 224.00390625 504.68164062 C216.66982886 507.12277334 209.33511876 509.56199794 202 512 C204.62232259 514.62232259 206.99097439 515.14189155 210.5234375 516.29296875 C211.19935944 516.51547806 211.87528137 516.73798737 212.57168579 516.96723938 C214.05297825 517.45433725 215.53514974 517.9387679 217.01806641 518.42089844 C221.10737175 519.75096046 225.18996717 521.10137105 229.2734375 522.44921875 C230.14047302 522.73485687 231.00750854 523.020495 231.90081787 523.31478882 C241.02557766 526.32626173 250.11767071 529.43171641 259.20834351 532.54428101 C276.91504643 538.60614153 294.64772818 544.58310962 312.41175842 550.47460938 C318.25609852 552.41518328 324.09458501 554.37290919 329.93177795 556.33486938 C334.63958483 557.91688617 339.34855061 559.49543786 344.05758667 561.0737915 C346.38519653 561.85491053 348.71228904 562.63757297 351.03884888 563.42181396 C354.29667227 564.51969345 357.55631675 565.61199626 360.81640625 566.703125 C361.80213623 567.03686127 362.78786621 567.37059753 363.8034668 567.71444702 C364.7095166 568.01654083 365.61556641 568.31863464 366.54907227 568.62988281 C367.73521873 569.02859589 367.73521873 569.02859589 368.94532776 569.43536377 C371.1269861 570.13249128 371.1269861 570.13249128 374 570 C371.71602647 559.77971498 368.49920991 549.88776278 365.28042603 539.93240356 C363.58430402 534.68435598 361.90238072 529.43175297 360.21875 524.1796875 C359.86839188 523.08771561 359.51803375 521.99574371 359.15705872 520.87068176 C355.49571044 509.44917715 351.89744818 498.00817741 348.3125 486.5625 C347.99333618 485.54396942 347.67417236 484.52543884 347.34533691 483.4760437 C343.08253429 469.87035458 338.83094596 456.26115543 334.578125 442.65234375 C334.34846228 441.91743776 334.11879955 441.18253178 333.88217735 440.42535591 C331.60116609 433.12610358 329.32045329 425.82675845 327.04132652 418.52691746 C326.19694218 415.8225035 325.35235969 413.11815144 324.50775909 410.41380501 C323.92299255 408.54110788 323.33853746 406.6683135 322.75408936 404.79551697 C322.23011566 403.11782982 322.23011566 403.11782982 321.69555664 401.40625 C321.39073868 400.42978516 321.08592072 399.45332031 320.77186584 398.44726562 C320.19753229 396.62629275 319.60380471 394.81141413 319 393 C318.34 393 317.68 393 317 393 C314.27812841 402.05745891 311.55724784 411.11521475 308.83763218 420.17335129 C307.57477802 424.37938602 306.31158266 428.58531765 305.04760742 432.79101562 C303.82783338 436.84968593 302.60895577 440.90862445 301.39069939 444.96775055 C300.92573911 446.51638628 300.46045584 448.06492508 299.99484444 449.61336517 C299.34279435 451.78202682 298.69189317 453.95103017 298.04125977 456.12011719 C297.67041763 457.35477722 297.2995755 458.58943726 296.91749573 459.86151123 C296.2239172 462.2340437 295.57030493 464.59577928 295 467 C291.32728195 465.45592568 288.99138795 463.23806501 286.19110107 460.43161011 C285.72215841 459.96437629 285.25321574 459.49714247 284.77006269 459.01575005 C283.20226963 457.45124735 281.64172509 455.87971104 280.08105469 454.30810547 C278.95775589 453.18424246 277.83401637 452.06081979 276.70986938 450.93780518 C273.66025431 447.88876422 270.6168476 444.83359346 267.57450771 441.77729559 C264.39368113 438.58397165 261.20719484 435.39630564 258.02130127 432.20803833 C251.9896205 426.17013988 245.96305637 420.12716099 239.938308 414.08234608 C233.07892998 407.20061807 226.21387619 400.3245641 219.3483367 393.44898391 C205.22589409 379.30563276 191.11060433 365.15516138 177 351 C180.70669747 346.57518838 184.52613649 342.33476116 188.63818359 338.2800293 C189.16575256 337.75552689 189.69332153 337.23102448 190.23687744 336.69062805 C191.36847043 335.56612285 192.50119306 334.44275343 193.63496017 333.32044029 C195.42769076 331.54525173 197.21672398 329.76641142 199.00479126 327.98652649 C204.08404725 322.93160896 209.16908289 317.88253376 214.25830078 312.83764648 C217.38167246 309.74097713 220.50022057 306.63951853 223.61580276 303.5350132 C224.80290912 302.35412681 225.99191098 301.17514282 227.18281174 299.99808311 C228.83913057 298.36087094 230.48929867 296.71769187 232.13818359 295.07299805 C232.6336972 294.58624603 233.12921082 294.09949402 233.63973999 293.59799194 C236.26502561 291.24917602 236.26502561 291.24917602 237 288 C237.5775 287.773125 238.155 287.54625 238.75 287.3125 C241.56427613 285.67083893 243.02737733 283.56440947 245 281 C245.66 280.67 246.32 280.34 247 280 C247 279.34 247 278.68 247 278 C247.66 278 248.32 278 249 278 C250.51077882 276.5114227 250.51077882 276.5114227 252.08081055 274.55249023 C256.07436955 269.85931931 260.34558922 265.51008666 264.70703125 261.16015625 C265.51363693 260.35259384 266.32024261 259.54503143 267.15129089 258.71299744 C268.84173886 257.02187355 270.53343195 255.33199344 272.22631836 253.64331055 C274.8258748 251.04915298 277.41999675 248.44964575 280.01367188 245.84960938 C281.66113742 244.20280389 283.30891274 242.55630824 284.95703125 240.91015625 C285.73407913 240.13108414 286.51112701 239.35201202 287.3117218 238.54933167 C288.02974472 237.83446091 288.74776764 237.11959015 289.48754883 236.38305664 C290.1192952 235.75210587 290.75104156 235.12115509 291.40193176 234.47108459 C293 233 293 233 295 232 C295.25144775 233.225979 295.50289551 234.45195801 295.76196289 235.71508789 C297.10968059 241.76687928 298.95800482 247.64485473 300.80859375 253.55859375 C301.1759816 254.74292496 301.54336945 255.92725616 301.92189026 257.1474762 C303.09038141 260.91187728 304.26378781 264.67472391 305.4375 268.4375 C306.6065496 272.19703803 307.7745921 275.95688764 308.94239807 279.71681213 C309.66713539 282.04892847 310.39278054 284.38076295 311.11949158 286.71226501 C313.11838794 293.13024115 315.08442315 299.55664474 317 306 C317.66 306 318.32 306 319 306 C328.75162183 275.85935088 338.47417152 245.71171084 347.90014648 215.46728516 C351.4116315 204.20796981 354.96445462 192.96335026 358.5755806 181.73565865 C359.91724082 177.56098717 361.25371614 173.38465154 362.59055519 169.2084341 C363.89068309 165.14957192 365.19983968 161.09376208 366.51550388 157.03991127 C367.51971579 153.93674741 368.5106867 150.82935262 369.50390625 147.72265625 C369.87383194 146.59291382 370.24375763 145.46317139 370.62489319 144.29919434 C371.11910011 142.74162415 371.11910011 142.74162415 371.62329102 141.15258789 C371.91478531 140.24940323 372.2062796 139.34621857 372.50660706 138.41566467 C373.02725421 135.86656266 372.8490478 134.43099538 372 132 Z M372 212 C370.68643178 215.76741573 369.38682285 219.53933031 368.09985352 223.31591797 C367.66028974 224.59945067 367.21696119 225.88170057 366.76977539 227.16259766 C366.12694276 229.00600426 365.4988278 230.85452238 364.87109375 232.703125 C364.48880615 233.81333008 364.10651855 234.92353516 363.71264648 236.06738281 C362.9627151 239.15343138 362.89324854 240.11003448 364 243 C365.80433622 245.24833982 365.80433622 245.24833982 368.14442444 247.50518799 C369.03769943 248.40258698 369.93097443 249.29998596 370.85131836 250.22457886 C371.84873886 251.21138228 372.84630227 252.19804126 373.84399414 253.18457031 C374.88910764 254.22883759 375.93356098 255.27376592 376.97740173 256.31930542 C379.8135483 259.15631357 382.65885691 261.98396982 385.50587773 264.81005955 C388.47943971 267.76488205 391.44452187 270.7281886 394.4105072 273.69061279 C400.02854001 279.29931713 405.65417718 284.90032959 411.28257412 290.49863124 C417.68983216 296.8723703 424.08858517 303.25461856 430.48663151 309.63760233 C443.64830097 322.76790457 456.82063414 335.88746159 470 349 C468.49956429 352.5169031 466.48098042 354.74861406 463.76655579 357.42012024 C462.87887512 358.29898895 461.99119446 359.17785767 461.07661438 360.08335876 C460.09060645 361.04953105 459.10453561 362.01563913 458.1184082 362.98168945 C457.08153475 364.00489885 456.04515989 365.02861371 455.00924683 366.05279541 C452.77946985 368.25593197 450.54692068 370.45620762 448.31240273 372.65453529 C444.78020313 376.1310432 441.2588508 379.61839728 437.73979187 383.10820007 C436.53455202 384.30315259 435.32929926 385.4980921 434.12403393 386.69301891 C433.52053596 387.29134576 432.91703799 387.88967261 432.2952522 388.50613058 C424.10169703 396.62758858 415.89888492 404.73951652 407.67553711 412.83081055 C402.1265351 418.29087737 396.59184455 423.76501817 391.07303113 429.25560158 C388.152195 432.16027904 385.22435377 435.05704282 382.27871132 437.93657875 C379.50940681 440.64384035 376.75916405 443.36907064 374.02245712 446.10926819 C373.01473649 447.1115911 372.00012791 448.10704312 370.97829628 449.09497643 C364.91279389 454.53941761 364.91279389 454.53941761 362.85366821 461.96075439 C363.42110245 463.46518097 363.42110245 463.46518097 364 465 C364.27980713 465.9892749 364.55961426 466.9785498 364.84790039 467.99780273 C365.17781982 468.96661377 365.50773926 469.9354248 365.84765625 470.93359375 C366.38422852 472.52397461 366.38422852 472.52397461 366.93164062 474.14648438 C367.30482422 475.23251953 367.67800781 476.31855469 368.0625 477.4375 C368.62807617 479.1071582 368.62807617 479.1071582 369.20507812 480.81054688 C370.13128335 483.54226609 371.06305809 486.27194861 372 489 C379.09278331 483.20541759 385.45364293 476.67956366 391.91186523 470.20166016 C393.21315887 468.90008413 394.51467337 467.59872889 395.81639099 466.2975769 C399.33463541 462.77961844 402.84979619 459.25859351 406.36439776 455.73699617 C410.04346798 452.05165887 413.7253855 448.36916845 417.40699768 444.68637085 C424.37155215 437.71871294 431.33355437 430.74851066 438.29463583 423.77738321 C446.22253376 415.83829345 454.15328405 407.90205568 462.08427131 399.96605229 C478.39268265 383.64719894 494.69752136 367.32477994 511 351 C509.39790007 347.0287108 506.63471537 344.35502691 503.64782715 341.39385986 C503.09624986 340.8391626 502.54467257 340.28446533 501.97638083 339.71295905 C500.12635836 337.8549573 498.26926674 336.00418839 496.41210938 334.15332031 C495.08461146 332.82311258 493.75753946 331.49247969 492.43086243 330.16145325 C488.8261373 326.54760264 485.215105 322.9401163 481.60264778 319.33399677 C477.82760683 315.56401285 474.0574406 311.78915916 470.28649902 308.01507568 C463.95484878 301.67978583 457.61899044 295.34872738 451.28076172 289.02001953 C443.94360603 281.69375775 436.61369597 274.36030591 429.28749037 267.02309537 C423.0040967 260.73063989 416.71683154 254.44207268 410.42628527 248.15676761 C406.66603747 244.3996444 402.90716962 240.64116743 399.15177917 236.87918854 C395.62362393 233.3452762 392.09065096 229.81625362 388.55382347 226.29102135 C387.2531929 224.99304576 385.95428063 223.69334584 384.65717506 222.39184761 C382.89340462 220.62265347 381.12365775 218.85967011 379.35217285 217.09820557 C378.83408475 216.57565603 378.31599666 216.05310648 377.78220892 215.51472211 C375.34862766 212.79696175 375.34862766 212.79696175 372 212 Z M790 305 C778.37687385 319.9212735 774.364046 338.38527027 776 357 C778.2006702 374.25161596 784.92572481 388.55266341 798.33984375 399.99609375 C810.79147809 409.3802266 825.63186403 412.40162313 840.9375 412.375 C842.41597412 412.37258301 842.41597412 412.37258301 843.92431641 412.37011719 C855.91118823 412.17427209 874.57850189 411.28416078 883.71508789 402.31665039 C885.49205495 399.1128426 885.51554014 396.47629484 885.67578125 392.82421875 C885.70859695 392.1235881 885.74141266 391.42295746 885.77522278 390.70109558 C886.0859677 383.46084435 886.18612984 376.21481317 886.18530273 368.96850586 C886.18753817 366.77504369 886.2059413 364.58204903 886.22460938 362.38867188 C886.22753628 360.97396001 886.22952577 359.55924583 886.23046875 358.14453125 C886.23457764 356.89003174 886.23868652 355.63553223 886.24291992 354.34301758 C885.9039022 349.67752037 885.07783476 347.17120533 881.90039062 343.71850586 C878.12291686 341.48032085 874.85974482 341.44149193 870.59375 341.50390625 C869.79142944 341.50245102 868.98910889 341.50099579 868.16247559 341.49949646 C866.47139849 341.50115152 864.78030572 341.51266878 863.08935547 341.53344727 C860.50813495 341.56240873 857.92896955 341.55404759 855.34765625 341.54101562 C853.7005109 341.5472536 852.05337201 341.555645 850.40625 341.56640625 C849.63841187 341.56347061 848.87057373 341.56053497 848.07946777 341.55751038 C843.54606389 341.63690609 840.62142549 342.22600524 837 345 C834.87177269 347.61191533 834.88438079 349.7576561 835.125 353 C835.71778118 356.78956541 836.84080084 358.67705944 840 361 C842.88265149 361.96088383 844.67662271 362.11670941 847.66796875 362.09765625 C848.8748938 362.09390991 848.8748938 362.09390991 850.10620117 362.09008789 C851.12302979 362.08098389 852.1398584 362.07187988 853.1875 362.0625 C856.425625 362.041875 859.66375 362.02125 863 362 C862.67 369.92 862.34 377.84 862 386 C847.67967075 390.09152264 832.76878945 390.85662856 819.2890625 383.5390625 C811.99959048 378.63794991 807.41536958 371.18170125 805.46728516 362.67333984 C804.691258 358.23368604 804.77409605 353.80942497 804.75 349.3125 C804.729375 348.36955078 804.70875 347.42660156 804.6875 346.45507812 C804.62941266 335.89044316 807.37900224 326.37021333 814 318 C823.05015648 309.76470436 833.91466434 308.26506528 845.734375 308.64453125 C853.49706171 309.12665327 860.5914664 311.5899873 867.375 315.3125 C871.6440103 317.2997979 873.53933803 317.43077837 878 316 C880.97551265 313.93007816 882.59918728 312.36573224 883.6328125 308.84375 C884.21117042 305.15210372 884.27497441 302.68743602 882.875 299.1875 C874.1873685 289.05192992 859.64222915 285.92033004 846.86572266 284.81542969 C825.524285 283.49259364 804.8154947 288.69511694 790 305 Z M1028 300 C1027.13375 300.763125 1026.2675 301.52625 1025.375 302.3125 C1011.92268089 317.5348611 1008.00663777 334.96057341 1008.84326172 354.79150391 C1009.94836189 370.36274406 1016.25211426 386.35740316 1027.7578125 397.125 C1042.91592976 409.8007775 1060.72609981 413.08136026 1080 412 C1090.56232192 410.81554209 1103.54894615 407.28193613 1110.8671875 399.01953125 C1113.34367035 395.51344838 1113.69668849 394.06018793 1113.4296875 389.9609375 C1112.41296603 385.32099041 1109.83640552 382.55760368 1106 380 C1099.61660456 378.91346461 1095.55528981 381.59653489 1089.9765625 384.53125 C1081.04795007 388.93696952 1070.39449262 389.38952912 1060.8125 386.875 C1053.85209447 384.4802624 1047.04793173 380.56874513 1043.0625 374.203125 C1036.74034699 361.0939548 1035.37705679 344.2534068 1040.03125 330.35546875 C1044.14068695 320.36357165 1049.06318795 314.87167656 1059.125 310.625 C1070.25547087 306.9660883 1081.34133082 308.55011837 1092 313 C1093.86328125 314.15625 1093.86328125 314.15625 1095.3125 315.25 C1099.24477731 317.81055267 1101.35045979 317.66422003 1106 317 C1109.17001928 314.43700569 1111.64461548 312.20878228 1112.30859375 308.08203125 C1112.55547992 303.73533833 1112.35789569 300.75272546 1109.625 297.25 C1099.9385195 287.45009467 1084.1186644 284.92211531 1070.9375 284.75 C1054.9232845 284.89213801 1040.06732981 289.28181265 1028 300 Z M580.22998047 292.14501953 C578.58178979 295.97073248 578.42913421 299.57731332 578.3203125 303.6796875 C578.28729034 304.58008759 578.25426819 305.48048767 578.22024536 306.40817261 C577.78016884 320.21722977 577.8521859 334.04225527 577.87304688 347.85668945 C577.87500169 350.12696668 577.87304689 352.39720534 577.86962891 354.66748047 C577.85504541 364.44598569 577.89367114 374.22199797 578 384 C578.00793579 385.06343628 578.01587158 386.12687256 578.02404785 387.22253418 C578.05307734 389.8973939 578.11538139 392.56843646 578.1953125 395.2421875 C578.20053925 395.96834259 578.20576599 396.69449768 578.21115112 397.44265747 C578.44641757 402.91707859 580.26608149 405.26183277 584 409 C586.91901078 410.45950539 589.49707096 410.14346035 592.75708008 410.16113281 C593.79885658 410.16858017 593.79885658 410.16858017 594.86167908 410.17617798 C597.16430648 410.19080841 599.46686496 410.19760358 601.76953125 410.203125 C603.36895246 410.20887642 604.96837364 410.21463416 606.5677948 410.22039795 C609.92451296 410.23091092 613.28120714 410.23675141 616.63793945 410.24023438 C620.93545349 410.24571499 625.23265003 410.2697323 629.53006458 410.29820633 C632.83551451 410.3168487 636.14088828 410.32203919 639.44638634 410.32357025 C641.03039978 410.3265945 642.61441196 410.33461538 644.19837379 410.34775543 C646.41740527 410.36484731 648.63566539 410.36292827 650.85473633 410.35644531 C652.74764153 410.36191376 652.74764153 410.36191376 654.67878723 410.36749268 C658.26319111 409.97087787 660.12872082 409.13397373 663 407 C665.56632517 403.57823311 665.36435051 400.15359579 665 396 C663.30179839 392.17904639 661.85634404 390.518217 658 389 C655.41480949 388.71210293 655.41480949 388.71210293 652.58886719 388.77294922 C650.96763947 388.77317581 650.96763947 388.77317581 649.31365967 388.77340698 C647.57285126 388.78889084 647.57285126 388.78889084 645.796875 388.8046875 C644.60394836 388.8075174 643.41102173 388.81034729 642.1819458 388.81326294 C638.37119524 388.82445947 634.56067955 388.84956347 630.75 388.875 C628.16667006 388.88503046 625.58333644 388.8941562 623 388.90234375 C616.66650334 388.9226956 610.33351464 388.9618463 604 389 C604 378.77 604 368.54 604 358 C607.55136719 358.03480469 611.10273437 358.06960938 614.76171875 358.10546875 C618.20368648 358.12886924 621.64564534 358.14708308 625.08764648 358.16479492 C627.4786374 358.17987543 629.86960068 358.20034277 632.26049805 358.22631836 C635.69847435 358.26273306 639.13608469 358.27973399 642.57421875 358.29296875 C643.64210129 358.30845261 644.70998383 358.32393646 645.81022644 358.33988953 C652.92298387 358.42413687 652.92298387 358.42413687 659 355 C661.56632517 351.57823311 661.36435051 348.15359579 661 344 C659.34860695 340.4613006 658.28394771 339.18929847 655 337 C652.63623579 336.71028756 652.63623579 336.71028756 649.9777832 336.77294922 C648.95695145 336.77310028 647.93611969 336.77325134 646.88435364 336.77340698 C645.78427475 336.78372955 644.68419586 336.79405212 643.55078125 336.8046875 C642.4230278 336.8075174 641.29527435 336.81034729 640.13334656 336.81326294 C636.52629042 336.82447084 632.91948127 336.84957677 629.3125 336.875 C626.86914421 336.885029 624.42578453 336.89415499 621.98242188 336.90234375 C615.9881092 336.92271178 609.99433155 336.96186003 604 337 C604 327.43 604 317.86 604 308 C607.82851563 308.05800781 611.65703125 308.11601562 615.6015625 308.17578125 C619.31492034 308.21478956 623.02825524 308.24514145 626.74169922 308.2746582 C629.31992837 308.2997824 631.89808643 308.33388759 634.47607422 308.37719727 C638.18474886 308.43793664 641.89248075 308.46623197 645.6015625 308.48828125 C646.75177887 308.51408768 647.90199524 308.5398941 649.08706665 308.56648254 C655.87950328 308.6607674 655.87950328 308.6607674 661.71240234 305.59448242 C664.42189467 302.66860143 664.42189467 302.66860143 665.01953125 298.9765625 C664.5959583 293.86560407 664.5959583 293.86560407 662.0625 289.5 C658.3335036 286.78800262 655.94027456 286.86419102 651.3347168 286.83886719 C650.6499527 286.83390228 649.9651886 286.82893738 649.25967407 286.82382202 C646.98951214 286.8091923 644.71942012 286.80239652 642.44921875 286.796875 C640.87221779 286.7911235 639.29521686 286.78536576 637.71821594 286.77960205 C634.40857619 286.76908927 631.09896075 286.76324866 627.78930664 286.75976562 C623.55232476 286.75428519 619.31566495 286.73026823 615.07878399 286.70179367 C611.81965707 286.68315007 608.56060739 286.67796074 605.30143166 286.67642975 C603.73974665 286.67340575 602.17806292 286.66538572 600.61643028 286.65224457 C598.42852842 286.63515014 596.24140873 286.63707232 594.0534668 286.64355469 C592.80929489 286.63990906 591.56512299 286.63626343 590.2832489 286.63250732 C585.74406323 287.14057648 583.11964523 288.64314441 580.22998047 292.14501953 Z M1135 290 C1131.49480322 295.3224293 1131.57254793 300.07616205 1131.61181641 306.22460938 C1131.60655945 307.23997269 1131.60130249 308.255336 1131.59588623 309.3014679 C1131.58271068 312.64905295 1131.59141593 315.99616032 1131.6015625 319.34375 C1131.59954107 321.67492768 1131.59662906 324.00610475 1131.59286499 326.33728027 C1131.58844494 331.21954375 1131.59486262 336.10164242 1131.60888672 340.98388672 C1131.6259782 347.23845286 1131.61613534 353.49263278 1131.59816933 359.74718475 C1131.58732302 364.55990503 1131.59078177 369.37253391 1131.5985527 374.18525696 C1131.60055235 376.49131822 1131.5981037 378.7973878 1131.59111404 381.10343933 C1131.58348586 384.32764635 1131.59512359 387.55122997 1131.61181641 390.77539062 C1131.60574371 391.72622025 1131.59967102 392.67704987 1131.59341431 393.6566925 C1131.64325959 398.85991751 1132.09067744 402.49894356 1135 407 C1139.50643703 411.16524874 1145.22573806 410.45003208 1151.01171875 410.43359375 C1152.09395218 410.4388356 1153.17618561 410.44407745 1154.29121399 410.44947815 C1156.58679347 410.4558998 1158.88240585 410.45455954 1161.17797852 410.44604492 C1164.63034762 410.43763915 1168.08100188 410.46612558 1171.53320312 410.49804688 C1191.64664642 410.56331843 1213.73887115 408.98569805 1229.12890625 394.19140625 C1242.99232155 377.95471318 1246.08741533 359.81796241 1245 339 C1243.42600012 321.87229599 1235.69986545 309.12543038 1222.6875 298.1875 C1206.97903821 286.63716045 1188.11727148 286.50602727 1169.48388672 286.60888672 C1165.97975501 286.62509363 1162.47675484 286.60890636 1158.97265625 286.58984375 C1156.7317683 286.59182411 1154.49088106 286.59566348 1152.25 286.6015625 C1151.20932373 286.59548981 1150.16864746 286.58941711 1149.09643555 286.5831604 C1143.74254869 286.63506529 1139.45353209 286.68348406 1135 290 Z M680.0625 327.1875 C678.58844781 331.08940285 678.64330716 334.12573281 680 338 C682.01027822 341.29495306 684.43985094 344.11983231 687 347 C687.7321875 347.82886719 688.464375 348.65773438 689.21875 349.51171875 C690.72996504 351.20148488 692.24942764 352.88391383 693.77734375 354.55859375 C696.90427581 357.99327308 699.95396769 361.49363483 703 365 C701.49993609 368.44779086 699.49590738 370.82360533 696.9375 373.5625 C692.07130242 378.8753534 687.49236359 384.36933925 683 390 C682.17048828 390.97453125 682.17048828 390.97453125 681.32421875 391.96875 C678.87997048 394.99824081 677.68972918 397.34235151 677.5625 401.1875 C677.9304544 405.48032858 677.9304544 405.48032858 680 409 C684.38820698 411.8574371 687.80461822 412.64942272 693 412 C697.32482661 409.46655599 700.5548257 406.60883536 703.875 402.875 C704.72964844 401.91464844 705.58429687 400.95429688 706.46484375 399.96484375 C709.52181084 396.38974665 712.44746865 392.72929457 715.30859375 388.99609375 C717 387 717 387 720 385 C721.66849385 386.95679978 723.33468287 388.9154995 725 390.875 C725.50184814 391.46273193 726.00369629 392.05046387 726.52075195 392.65600586 C729.53764116 396.20724117 732.39337274 399.83141988 735.1875 403.5625 C738.53898565 407.75356352 741.68976245 410.71110739 747 412 C751.26802427 412.29298126 754.3271126 411.44381935 757.9375 409.0625 C760.4120653 406.5879347 760.90389821 405.50186491 761.5625 402.0625 C761.32586405 392.45902441 749.00466271 382.2414047 742.953125 375.3828125 C740.5495254 372.65311945 738.24331745 369.86404121 736 367 C737.44619565 362.27808409 740.24755495 359.32310073 743.625 355.875 C753.86340133 345.82929602 753.86340133 345.82929602 759.3125 333.25 C758.91753151 329.14232771 757.5942368 327.17073386 755 324 C751.57874433 321.40456466 748.17543415 321.57537958 744 322 C738.31692614 324.71222545 734.82236057 327.9689539 730.875 332.8125 C730.37613281 333.40353516 729.87726562 333.99457031 729.36328125 334.60351562 C726.0287611 338.59536285 722.97970118 342.7378267 720 347 C713.07822825 340.30151121 706.75330429 333.00151233 700.60546875 325.59375 C697.79053031 322.79935856 695.55961593 322.05181629 691.625 321.6875 C686.59038477 322.12151855 683.43657299 323.37806275 680.0625 327.1875 Z M912.50390625 337.70703125 C903.813892 348.34742276 902.04550229 361.3284027 903.23828125 374.6640625 C904.93173752 386.53536202 910.4761957 396.6459921 920 404 C933.32852104 412.26368305 948.10375809 414.20511598 963.375 410.875 C973.63224603 407.88677792 982.86888004 401.69598833 988.53515625 392.51171875 C992.8102203 384.29811173 994.3454893 376.87831989 994.3125 367.6875 C994.32861328 366.80126953 994.34472656 365.91503906 994.36132812 365.00195312 C994.37021846 352.81330525 990.03916953 342.31023692 981.875 333.25 C971.4339157 323.45714266 958.21958611 321.38856106 944.55859375 321.68359375 C931.40534069 322.33947263 921.04081829 327.96648148 912.50390625 337.70703125 Z " fill="#ffffff" transform="translate(0,0)"/>
<path d="M0 0 C38.38 0 38.38 0 48.68359375 9.5625 C57.0183192 18.54155584 58.83650307 29.65257328 59.0703125 41.58984375 C58.66192607 52.46012956 55.65692388 62.32626546 48.015625 70.31640625 C34.33935753 81.7398002 17.04171248 79 0 79 C0 52.93 0 26.86 0 0 Z " fill="#ffffff" transform="translate(1159,309)"/>
<path d="M0 0 C6.22103532 5.76583761 9.09619061 10.40826274 9.8984375 18.953125 C9.99150511 27.70148027 9.86898845 36.43232576 3.84375 43.34765625 C-1.35536782 48.00703515 -5.75982156 48.73419631 -12.64453125 48.65234375 C-16.95721013 48.22409172 -19.00119156 47.03989226 -22.4375 44.375 C-27.68543589 37.85053916 -28.78382443 31.60433235 -28.75 23.5 C-28.76611328 22.73558594 -28.78222656 21.97117187 -28.79882812 21.18359375 C-28.80462042 14.36027336 -27.3017196 8.50874951 -23.0625 3 C-17.04065814 -3.02184186 -7.5432481 -3.5658991 0 0 Z " fill="#ffffff" transform="translate(958.4375,343.625)"/>
</svg>
