<?xml version="1.0" encoding="UTF-8"?>
<svg version="1.1" xmlns="http://www.w3.org/2000/svg" viewBox="132.0 129.0 1117.6 445.0">
<path d="M0 0 C464.64 0 929.28 0 1408 0 C1408 232.32 1408 464.64 1408 704 C943.36 704 478.72 704 0 704 C0 471.68 0 239.36 0 0 Z " fill="#ffffff" transform="translate(0,0)"/>
<path d="M0 0 C-2.11517246 9.09878655 -4.52958895 17.87099458 -7.78125 26.64453125 C-9.33388764 30.91926116 -10.65885031 35.24468475 -11.97265625 39.59765625 C-13.10372768 43.34352399 -14.26736285 47.07871102 -15.4375 50.8125 C-15.64834229 51.48684082 -15.85918457 52.16118164 -16.07641602 52.85595703 C-17.12062457 56.19536059 -18.16765049 59.53385279 -19.21875 62.87109375 C-21.2539843 69.34408771 -23.25224472 75.82503068 -25.18212891 82.33032227 C-28.43658259 93.29385514 -31.98398787 104.13715733 -35.66796875 114.96289062 C-38.36879904 122.90987913 -40.87076761 130.88276151 -43.19555664 138.94555664 C-44.58611675 143.72201851 -46.19259543 148.36567234 -47.953125 153.01953125 C-50.25902014 159.58444914 -52.08693547 166.31211456 -54 173 C-54.66 173 -55.32 173 -56 173 C-56.19634033 172.3201001 -56.39268066 171.6402002 -56.5949707 170.93969727 C-57.49893282 167.81341748 -58.40569779 164.68795712 -59.3125 161.5625 C-59.62123047 160.49322266 -59.92996094 159.42394531 -60.24804688 158.32226562 C-61.83994405 152.84278799 -63.50108561 147.40671323 -65.33666992 142.00415039 C-66.69744991 137.89276176 -67.78984814 133.70192737 -68.9375 129.52734375 C-69.70117472 126.99205599 -70.51152805 124.58481885 -71.45703125 122.12109375 C-73.09251541 117.85020544 -74.41281789 113.51514383 -75.6875 109.125 C-76.02491211 107.98804688 -76.02491211 107.98804688 -76.36914062 106.828125 C-78 101.25643522 -78 101.25643522 -78 99 C-84.60092368 104.56924211 -90.71997047 110.57281454 -96.81640625 116.68359375 C-97.84180924 117.70832108 -98.86736046 118.73290011 -99.89305115 119.75733948 C-102.03018063 121.8930043 -104.16551609 124.03044208 -106.29956055 126.16918945 C-109.01475875 128.89008416 -111.73442333 131.6064631 -114.45546055 134.32151699 C-116.57042075 136.43283814 -118.68296207 138.54656675 -120.79481316 140.66099739 C-121.79586663 141.66271091 -122.79764385 142.66370177 -123.80020332 143.663908 C-130.26559148 150.10577264 -130.26559148 150.10577264 -136.37084961 156.8840332 C-140.92500429 162.18853625 -145.97134542 167.01570168 -150.95645142 171.90935516 C-153.41345397 174.32385109 -155.86077141 176.74806873 -158.30879211 179.17166519 C-162.8516857 183.66898074 -167.3985779 188.16208274 -171.96142578 192.63916016 C-175.15084655 195.76936135 -178.32806554 198.9114938 -181.49743652 202.06198883 C-182.70506682 203.25785774 -183.91722451 204.44917239 -185.13391113 205.63582611 C-186.82615611 207.28727787 -188.50242857 208.95346307 -190.17578125 210.62402344 C-190.68266983 211.11136459 -191.18955841 211.59870575 -191.71180725 212.10081482 C-193.25326442 213.60225862 -193.25326442 213.60225862 -195 216 C-194.77687351 220.03106351 -192.31278703 222.05951876 -189.56532288 224.8021698 C-189.10035461 225.2704069 -188.63538635 225.73864401 -188.15632814 226.22107011 C-186.59572757 227.78895636 -185.02463408 229.34588284 -183.45336914 230.90307617 C-182.33269073 232.02454538 -181.21266548 233.14666762 -180.09324646 234.26939392 C-177.05047263 237.31730557 -173.99844107 240.35579078 -170.94455266 243.39256072 C-167.75333443 246.56875647 -164.57020902 249.75304273 -161.38609314 252.93635559 C-156.03852353 258.28023175 -150.68534655 263.61843638 -145.32836914 268.95288086 C-138.44631594 275.80604563 -131.57356477 282.66846078 -124.70371342 289.53385448 C-118.80412826 295.42946325 -112.90028616 301.32080379 -106.99575877 307.21146226 C-105.0944971 309.10862108 -103.19382524 311.0063693 -101.29323006 312.90419579 C-98.31050448 315.88203555 -95.3251419 318.85720684 -92.33768654 321.83030128 C-91.23951175 322.92394566 -90.14218355 324.01844086 -89.04574966 325.11383057 C-87.55335699 326.60448287 -86.05793974 328.09203133 -84.56166077 329.57878113 C-83.72412797 330.41333926 -82.88659517 331.2478974 -82.02368259 332.10774517 C-80.14079416 334.04803115 -80.14079416 334.04803115 -78 335 C-77.89945313 334.21238281 -77.79890625 333.42476563 -77.6953125 332.61328125 C-76.80594216 327.99155335 -75.35106782 323.65077202 -73.875 319.1875 C-71.21634401 311.00786688 -68.77504231 302.79425018 -66.5 294.5 C-63.31237414 282.89577228 -59.74525374 271.43532457 -56 260 C-55.34 260 -54.68 260 -54 260 C-52.81215859 263.70822406 -51.62476337 267.41659083 -50.4375 271.125 C-50.07615967 272.25341309 -49.71481934 273.38182617 -49.3425293 274.54443359 C-47.58425581 280.03812469 -45.82897646 285.53270438 -44.0859375 291.03125 C-43.64109009 292.43431396 -43.64109009 292.43431396 -43.18725586 293.86572266 C-42.60451983 295.70387018 -42.02199997 297.54208625 -41.43969727 299.38037109 C-39.80531938 304.52342635 -38.11562796 309.64198898 -36.375 314.75 C-34.64663015 319.87935569 -33.14847166 325.02505687 -31.75 330.25 C-29.35614694 339.16349041 -26.40854905 347.86624272 -23.44506836 356.60400391 C-20.8765146 364.22911447 -18.51486075 371.88662335 -16.3125 379.625 C-13.94150969 387.95368924 -11.29311116 396.10789083 -8.33984375 404.24609375 C-6.73473636 408.74320222 -5.31608996 413.2784646 -3.9453125 417.8515625 C-3.26975079 420.1015738 -2.5748513 422.34581554 -1.8671875 424.5859375 C-1.49851562 425.75382812 -1.12984375 426.92171875 -0.75 428.125 C-0.41484375 429.17945313 -0.0796875 430.23390625 0.265625 431.3203125 C1 434 1 434 1 437 C-3.69132039 436.67269858 -7.50555426 435.49887477 -11.875 433.75 C-16.67284425 431.84059863 -21.47047201 430.21056743 -26.4375 428.8125 C-34.84896156 426.42423323 -43.14269786 423.69780894 -51.4375 420.9375 C-52.08339081 420.72380768 -52.72928162 420.51011536 -53.39474487 420.28994751 C-65.18838284 416.38383527 -65.18838284 416.38383527 -70.796875 414.0546875 C-77.51727956 411.2999488 -84.45780508 409.18016783 -91.37103271 406.96871948 C-94.67573399 405.91128282 -97.97771475 404.84547377 -101.27984619 403.78004456 C-102.91591989 403.25220864 -104.5521086 402.72472904 -106.18841553 402.19761658 C-112.59180607 400.13459318 -118.98901929 398.0538913 -125.375 395.9375 C-126.17397705 395.67541748 -126.9729541 395.41333496 -127.79614258 395.14331055 C-128.89865356 394.77653198 -128.89865356 394.77653198 -130.0234375 394.40234375 C-130.93488525 394.10058228 -130.93488525 394.10058228 -131.86474609 393.79272461 C-133.69881259 393.11181746 -135.50145909 392.34731743 -137.2956543 391.56738281 C-140.88413371 390.01469487 -144.53235735 388.74681753 -148.24609375 387.51953125 C-149.23005882 387.19295784 -149.23005882 387.19295784 -150.23390198 386.85978699 C-152.3008349 386.17449974 -154.36912765 385.49342874 -156.4375 384.8125 C-157.8510041 384.34468086 -159.26441644 383.87658437 -160.67773438 383.40820312 C-164.11743607 382.26893149 -167.55836936 381.13343309 -171 380 C-170 378 -170 378 -167.03295898 376.921875 C-165.71021899 376.52436886 -164.38522675 376.13431382 -163.05859375 375.75 C-161.58787805 375.30765141 -160.11768052 374.86357713 -158.64794922 374.41796875 C-157.88117859 374.1864209 -157.11440796 373.95487305 -156.32440186 373.71630859 C-152.58126287 372.5627892 -148.87110775 371.31505397 -145.16015625 370.0625 C-144.41510834 369.81218018 -143.67006042 369.56186035 -142.9024353 369.30395508 C-139.86213637 368.28197296 -136.82280678 367.25715659 -133.78442383 366.22949219 C-122.92532041 362.56045091 -112.01981377 359.15474995 -101 356 C-101 353.12730878 -102.62461364 352.1377746 -104.55954361 350.19161797 C-105.08871258 349.66963892 -105.61788155 349.14765987 -106.16308594 348.60986328 C-106.99613062 347.77637202 -106.99613062 347.77637202 -107.84600449 346.92604256 C-109.72075721 345.05268631 -111.60257448 343.18658715 -113.484375 341.3203125 C-114.82470165 339.98382142 -116.16457568 338.6468763 -117.50402832 337.30950928 C-120.39539372 334.42448071 -123.2898413 331.54259232 -126.18664551 328.6630249 C-130.76234503 324.11427808 -135.33048877 319.55799505 -139.89746094 315.00048828 C-149.59243139 305.32775709 -159.29579496 295.6634652 -169 286 C-179.47468421 275.56929022 -189.94795939 265.13719039 -200.4115181 254.69531822 C-204.95647263 250.16036124 -209.50626822 245.63033356 -214.05975342 241.10394287 C-216.88607991 238.29248149 -219.70830494 235.47693101 -222.52940369 232.66022491 C-223.84349009 231.34989898 -225.15931212 230.04131114 -226.47694397 228.73455048 C-228.26819745 226.95761807 -230.05328739 225.17471955 -231.83691406 223.39013672 C-232.36608303 222.86815767 -232.895252 222.34617863 -233.44045639 221.80838203 C-237 218.22818558 -237 218.22818558 -237 216 C-235.66262245 214.68151093 -235.66262245 214.68151093 -233.73355103 213.10046387 C-227.94307745 208.17049941 -222.63098822 202.77097803 -217.26318359 197.39257812 C-216.09954595 196.23029793 -214.93569621 195.06823004 -213.77165222 193.90635681 C-210.63106104 190.77029865 -207.49361017 187.63111674 -204.3568759 184.4912014 C-201.06336438 181.19514546 -197.76739928 177.90154445 -194.47183228 174.60754395 C-188.94068547 169.07821251 -183.41164153 163.54678491 -177.88378906 158.01416016 C-171.5042989 151.62922591 -165.12121081 145.24790556 -158.73624742 138.86844492 C-153.24034816 133.37709159 -147.74640997 127.88378198 -142.25408995 122.38884878 C-138.97981621 119.11302076 -135.70488185 115.83786087 -132.42817307 112.56446838 C-129.34786933 109.48706497 -126.27004444 106.4072032 -123.19407082 103.32547188 C-122.06866274 102.19874789 -120.94241461 101.0728622 -119.81524086 99.94790459 C-114.325528 94.46798635 -108.95937705 88.97085066 -104 83 C-102.68409365 81.64946454 -101.35921586 80.30693833 -100 79 C-100.73347656 79.03609375 -101.46695313 79.0721875 -102.22265625 79.109375 C-105.12352232 78.99513555 -106.81163775 78.43323082 -109.4375 77.25 C-114.61987964 75.05656361 -119.87668721 73.56087508 -125.3125 72.125 C-129.10669387 70.96744933 -132.698623 69.54118533 -136.36767578 68.04345703 C-140.66771868 66.33891396 -145.0459111 64.88624237 -149.4375 63.4375 C-150.35039795 63.13448975 -151.2632959 62.83147949 -152.20385742 62.51928711 C-158.41674379 60.47488288 -164.64598432 58.56246287 -171 57 C-171 56.34 -171 55.68 -171 55 C-169.79085937 54.62488281 -168.58171875 54.24976563 -167.3359375 53.86328125 C-158.56565251 51.12695233 -149.87362943 48.28194149 -141.23828125 45.14453125 C-137.06893429 43.67092611 -132.85681317 42.3786095 -128.625 41.09765625 C-113.5129484 36.59986646 -113.5129484 36.59986646 -98.77246094 31.04760742 C-95.35368404 29.75578181 -91.86835077 28.76921209 -88.35546875 27.7734375 C-79.75719404 25.28814946 -71.30094364 22.45659775 -62.84667969 19.52316284 C-59.53350198 18.3739337 -56.21713181 17.23405073 -52.90090942 16.09364319 C-51.24589137 15.52447489 -49.5910027 14.95493026 -47.93624878 14.38499451 C-6.16313838 0 -6.16313838 0 0 0 Z " fill="none" transform="translate(373,133)"/>
<path d="M0 0 C1.51373199 -0.01925285 1.51373199 -0.01925285 3.05804443 -0.03889465 C4.14651672 -0.04628159 5.23498901 -0.05366852 6.35644531 -0.0612793 C7.48922913 -0.06935104 8.62201294 -0.07742279 9.78912354 -0.08573914 C12.19322179 -0.09957441 14.59733964 -0.11029905 17.00146484 -0.11816406 C19.43544355 -0.12961922 21.86939845 -0.14996667 24.30322266 -0.1796875 C46.67285055 -0.45271105 66.26197111 0.87499335 83.37207031 16.92700195 C97.17823467 31.8213369 99.56380573 48.16477734 99.27050781 67.6730957 C99.08378899 72.45694664 98.29767581 76.59292865 96.93457031 81.17700195 C96.72316406 81.95688477 96.51175781 82.73676758 96.29394531 83.5402832 C91.69293361 98.25762193 83.54873613 108.91611352 69.93457031 116.17700195 C54.37815588 123.49766757 37.47490859 123.68789576 20.63989258 123.62304688 C17.21474265 123.61442053 13.79120194 123.6435911 10.36621094 123.67504883 C8.17675831 123.67665839 5.98730274 123.67608802 3.79785156 123.6730957 C2.27131706 123.68994667 2.27131706 123.68994667 0.71394348 123.70713806 C-3.62547603 123.66424327 -6.31804418 123.61286232 -10.11938477 121.39599609 C-13.16856288 117.91914503 -14.31219429 115.25937091 -14.33958435 110.63626099 C-14.34955948 109.73070465 -14.35953461 108.82514832 -14.36981201 107.89215088 C-14.37047668 106.90607849 -14.37114136 105.9200061 -14.37182617 104.90405273 C-14.38014969 103.85972076 -14.38847321 102.81538879 -14.39704895 101.7394104 C-14.42116419 98.28367394 -14.42992275 94.82812616 -14.43652344 91.37231445 C-14.44548813 88.97101789 -14.45460995 86.56972191 -14.46388245 84.16842651 C-14.48037883 79.13302248 -14.48807384 74.09768499 -14.4909668 69.06225586 C-14.49635316 62.61020186 -14.53404187 56.15877316 -14.57971096 49.70689583 C-14.60945259 44.74663 -14.61668973 39.78651532 -14.61769295 34.82616806 C-14.62190046 32.44750986 -14.63435587 30.06885142 -14.65521049 27.69028091 C-14.68206516 24.36263265 -14.67731614 21.03644152 -14.66479492 17.70874023 C-14.67962921 16.72671631 -14.6944635 15.74469238 -14.70974731 14.73291016 C-14.66258814 10.33175985 -14.53114857 7.14132755 -11.77796936 3.58126831 C-7.8015183 0.05673092 -5.15727902 0.05740555 0 0 Z " fill="none" transform="translate(1146.0654296875,286.822998046875)"/>
<path d="M0 0 C0.66 0 1.32 0 2 0 C3.27908421 1.29853058 3.27908421 1.29853058 4.82948303 3.1973877 C10.12010269 9.41065129 15.95345501 15.08485556 21.72827148 20.84179688 C23.01029088 22.12353378 24.29208928 23.40549175 25.57368469 24.68765259 C29.03373481 28.14798826 32.49684771 31.60524364 35.96053958 35.06193352 C39.58715072 38.68227074 43.21090843 42.30546184 46.8349762 45.92834473 C53.68926874 52.77953583 60.54610522 59.62817498 67.40387064 66.47588968 C75.21481501 74.27563598 83.02290195 82.07824011 90.83075607 89.88107967 C106.88400441 105.92389052 122.94081864 121.96312838 139 138 C137.39798982 141.97609229 134.62773821 144.6463416 131.6343689 147.60614014 C131.08138048 148.1608374 130.52839206 148.71553467 129.95864642 149.28704095 C128.10394203 151.14504033 126.24217837 152.99579984 124.38037109 154.84667969 C123.04961421 156.17687246 121.7192975 157.50750573 120.38938904 158.83854675 C116.77631922 162.45219109 113.15711004 166.05962986 109.53678465 169.66600323 C105.75489211 173.43540495 101.97865137 177.21045994 98.20181274 180.98492432 C91.04831172 188.13220573 83.88972709 195.27437301 76.72931159 202.4147265 C68.57796097 210.5437331 60.43227932 218.6784101 52.28707385 226.81357336 C35.53102552 243.54870879 18.76785452 260.27669444 2 277 C1.01 276.67 0.02 276.34 -1 276 C-1.98156884 273.31864122 -2.77768954 270.75131467 -3.5 268 C-3.9282003 266.44360049 -4.35787556 264.88760598 -4.7890625 263.33203125 C-4.9943457 262.58260254 -5.19962891 261.83317383 -5.41113281 261.06103516 C-6.12527136 258.56155026 -6.9809114 256.12778768 -7.875 253.6875 C-9.26548948 249.12978449 -9.26548948 249.12978449 -8 246 C-6.22151089 243.8523674 -6.22151089 243.8523674 -3.85557556 241.49481201 C-2.96230057 240.59741302 -2.06902557 239.70001404 -1.14868164 238.77542114 C-0.15126114 237.78861772 0.84630227 236.80195874 1.84399414 235.81542969 C2.88910764 234.77116241 3.93356098 233.72623408 4.97740173 232.68069458 C7.8135483 229.84368643 10.65885691 227.01603018 13.50587773 224.18994045 C16.47943971 221.23511795 19.44452187 218.2718114 22.4105072 215.30938721 C28.02854001 209.70068287 33.65417718 204.09967041 39.28257412 198.50136876 C45.68983216 192.1276297 52.08858517 185.74538144 58.48663151 179.36239767 C71.64830097 166.23209543 84.82063414 153.11253841 98 140 C96.49863621 136.48263877 94.47706304 134.24317185 91.76655579 131.56642151 C90.87887512 130.68466248 89.99119446 129.80290344 89.07661438 128.89442444 C88.09061436 127.92507049 87.10454325 126.95578885 86.1184082 125.98657227 C85.08154892 124.96010196 84.04517371 123.93314249 83.00924683 122.9057312 C80.77958367 120.69593355 78.54704954 118.48909181 76.31240273 116.28433418 C72.78104792 112.79911142 69.25946404 109.30412924 65.73979187 105.80711365 C55.73077371 95.86496484 45.713553 85.9311872 35.67553711 76.01831055 C30.13029926 70.54203969 24.59577311 65.05518082 19.07303113 59.55622143 C15.57546064 56.07487718 12.0651266 52.60710379 8.54498827 49.1485883 C6.3612268 46.99677285 4.19010849 44.83254844 2.02245712 42.66451645 C1.01299199 41.65990685 -0.00165308 40.66047226 -1.02170372 39.66661263 C-2.4106777 38.31184071 -3.77970098 36.9367028 -5.14750671 35.56056213 C-5.92013698 34.79606027 -6.69276724 34.0315584 -7.48881054 33.24388981 C-9 31 -9 31 -8.77358723 28.33904934 C-8.39066155 27.18121992 -8.39066155 27.18121992 -8 26 C-7.82678223 25.34483398 -7.65356445 24.68966797 -7.47509766 24.01464844 C-7.28995605 23.3859082 -7.10481445 22.75716797 -6.9140625 22.109375 C-6.70676514 21.40353271 -6.49946777 20.69769043 -6.28588867 19.97045898 C-6.06779541 19.23770752 -5.84970215 18.50495605 -5.625 17.75 C-5.29109253 16.6209021 -5.29109253 16.6209021 -4.95043945 15.46899414 C-3.40481347 10.27486113 -1.769669 5.12272604 0 0 Z " fill="none" transform="translate(372,211)"/>
<path d="M0 0 C1.08796875 0.25652344 2.1759375 0.51304687 3.296875 0.77734375 C11.83604832 3.0695412 18.98403637 6.47605456 24 14 C24.69847331 20.05343535 23.33587662 23.13915121 20 28 C16.15434323 30.56377118 14.58969584 30.5099662 10 30 C7.51229203 28.93090236 5.17784178 27.71732426 2.8203125 26.38671875 C-4.25864282 22.90606897 -10.63170977 21.50947861 -18.5 21.625 C-19.29019531 21.61339844 -20.08039062 21.60179687 -20.89453125 21.58984375 C-30.42382869 21.63663244 -38.75571663 24.7789205 -46 31 C-54.21831618 40.02403345 -55.24537243 50.91736703 -55.375 62.625 C-55.38901855 63.49543945 -55.40303711 64.36587891 -55.41748047 65.26269531 C-55.34054966 75.72134043 -52.40207901 85.22696278 -45.1796875 92.9453125 C-36.9842349 100.62654062 -29.363285 101.45569534 -18.5 101.25 C-17.41074219 101.24484375 -16.32148437 101.2396875 -15.19921875 101.234375 C-9.31568488 101.17746052 -3.89146453 100.73643307 2 100 C2 91.75 2 83.5 2 75 C-4.64293843 75.27565727 -4.64293843 75.27565727 -11.28173828 75.63061523 C-17.94872648 75.76975126 -17.94872648 75.76975126 -20.99658203 73.53808594 C-23.77568272 70.42965315 -24.90423314 68.55544777 -25.625 64.375 C-24.90568855 60.49071819 -23.77098328 58.77098328 -21 56 C-16.06285323 53.53142662 -8.43512774 54.68711762 -2.94335938 54.64990234 C-1.15481534 54.63336577 0.63366323 54.60610588 2.421875 54.56787109 C5.00555573 54.51292966 7.58768772 54.49120157 10.171875 54.4765625 C10.96583679 54.45389313 11.75979858 54.43122375 12.57781982 54.40786743 C16.69390408 54.42342825 19.23381294 54.7735353 22.48925781 57.40771484 C25.75485241 60.77936823 26.12550241 62.19286595 26.17700195 66.73754883 C26.19625481 68.21467094 26.19625481 68.21467094 26.21589661 69.72163391 C26.22328354 70.78931503 26.23067047 71.85699615 26.23828125 72.95703125 C26.246353 74.05214523 26.25442474 75.14725922 26.26274109 76.27555847 C26.27658904 78.5965313 26.287308 80.91752455 26.29516602 83.23852539 C26.31237955 86.78766483 26.3562606 90.33587316 26.40039062 93.88476562 C26.41051725 96.13801397 26.41903344 98.39127025 26.42578125 100.64453125 C26.44328934 101.70613968 26.46079742 102.76774811 26.47883606 103.86152649 C26.45717029 111.22426988 26.45717029 111.22426988 24.17211914 115.1015625 C11.02665626 126.59072956 -10.81517824 125.91330844 -27.18408203 124.859375 C-42.89164764 123.59327399 -57.37161918 118.82390667 -68.3828125 106.99609375 C-82.24385488 89.88741584 -85.50929486 71.40557439 -84 50 C-81.79641048 33.15878461 -73.22409927 19.7425817 -60.546875 8.90234375 C-43.41549921 -3.35359333 -19.94242024 -4.87419489 0 0 Z " fill="none" transform="translate(860,287)"/>
<path d="M0 0 C0.69320343 -0.00686325 1.38640686 -0.0137265 2.10061646 -0.02079773 C4.38776245 -0.03906961 6.67422258 -0.03522731 8.96142578 -0.02954102 C10.55559512 -0.03410333 12.14976249 -0.03940905 13.743927 -0.04542542 C17.08457428 -0.05435775 20.42498253 -0.0519329 23.765625 -0.04199219 C28.03849415 -0.03051417 32.31053543 -0.0506947 36.58329582 -0.07990932 C39.87595836 -0.0982933 43.16842342 -0.09797434 46.46112442 -0.0922718 C48.03593226 -0.09211879 49.61075365 -0.0981465 51.18551254 -0.11056328 C53.39242527 -0.12551042 55.59782091 -0.11477054 57.8046875 -0.09765625 C59.05837128 -0.09749008 60.31205505 -0.09732391 61.60372925 -0.09715271 C65.66916053 0.49724954 67.8496218 1.85227063 71.03173828 4.40405273 C72.64603751 7.6326512 72.62744485 10.91398927 72.03173828 14.40405273 C70.29571723 17.42913419 68.19593691 19.82195342 65.03173828 21.40405273 C63.30567375 21.49467129 61.57609322 21.52159775 59.84765625 21.51757812 C58.76668671 21.51750259 57.68571716 21.51742706 56.57199097 21.51734924 C54.8156987 21.50960732 54.8156987 21.50960732 53.02392578 21.50170898 C51.82816925 21.50029404 50.63241272 21.49887909 49.40042114 21.49742126 C45.56916841 21.49180937 41.73797344 21.47925482 37.90673828 21.46655273 C35.31429121 21.46153927 32.72184322 21.4569761 30.12939453 21.45288086 C23.76346879 21.44268559 17.39766843 21.42311241 11.03173828 21.40405273 C11.03173828 30.97405273 11.03173828 40.54405273 11.03173828 50.40405273 C16.46707031 50.33444336 16.46707031 50.33444336 22.01220703 50.26342773 C25.52366739 50.23222821 29.03511228 50.20794255 32.54663086 50.18432617 C34.98615435 50.16421709 37.42562968 50.1369259 39.86499023 50.10229492 C43.37251676 50.05374784 46.87940571 50.03107642 50.38720703 50.01342773 C51.47696335 49.99278259 52.56671967 49.97213745 53.6894989 49.9508667 C61.27278467 49.94862203 61.27278467 49.94862203 65.19702148 52.3034668 C68.30014672 55.85626647 68.4206872 58.55098237 68.39111328 63.14233398 C67.82116962 66.72926203 65.8294778 68.27244168 63.03173828 70.40405273 C60.57012811 71.63485782 58.96676835 71.52449251 56.21484375 71.51757812 C55.21395721 71.51750259 54.21307068 71.51742706 53.18185425 71.51734924 C52.09848785 71.51218796 51.01512146 71.50702667 49.89892578 71.50170898 C48.79195343 71.50029404 47.68498108 71.49887909 46.54446411 71.49742126 C42.99852835 71.49181046 39.45265505 71.4792561 35.90673828 71.46655273 C33.50699961 71.46153913 31.10725995 71.45697598 28.70751953 71.45288086 C22.81554885 71.44268714 16.92371373 71.42311376 11.03173828 71.40405273 C11.03173828 81.63405273 11.03173828 91.86405273 11.03173828 102.40405273 C14.86025391 102.35764648 18.68876953 102.31124023 22.63330078 102.26342773 C26.34666621 102.23222103 30.06001695 102.20793943 33.7734375 102.18432617 C36.35162916 102.1642271 38.92977532 102.13694332 41.5078125 102.10229492 C45.21642289 102.05370427 48.92442984 102.03106616 52.63330078 102.01342773 C53.78351715 101.99278259 54.93373352 101.97213745 56.11880493 101.9508667 C62.37177645 101.94911855 66.33185311 102.08838443 71.03173828 106.40405273 C72.63830257 109.61718131 72.51021727 112.91891526 72.03173828 116.40405273 C69.04644416 122.06581744 69.04644416 122.06581744 65.03173828 123.40405273 C62.71290578 123.51922812 60.39090895 123.57350879 58.06933594 123.59692383 C57.36491867 123.60510132 56.6605014 123.61327881 55.93473816 123.6217041 C53.60510094 123.64650416 51.27552435 123.66305851 48.94580078 123.67749023 C48.1494157 123.68281391 47.35303062 123.68813759 46.53251266 123.69362259 C42.31872267 123.72032834 38.10496206 123.73971306 33.89111328 123.75415039 C30.40484442 123.76750057 26.91915936 123.79537567 23.43310547 123.83618164 C19.22151742 123.88547788 15.01045967 123.91026714 10.79859543 123.91737747 C9.1950031 123.92409166 7.59142268 123.93931831 5.98799515 123.96326828 C3.74234578 123.99490241 1.49874351 123.99496091 -0.74707031 123.98754883 C-2.0237558 123.99563568 -3.30044128 124.00372253 -4.61581421 124.01205444 C-8.86334509 123.24171993 -10.31381987 121.73727104 -12.96826172 118.40405273 C-13.90087229 115.60622101 -14.09767033 113.90712932 -14.10870361 111.01480103 C-14.11441376 110.11758835 -14.1201239 109.22037567 -14.12600708 108.29597473 C-14.12712494 107.31408676 -14.1282428 106.33219879 -14.12939453 105.32055664 C-14.13435944 104.28451797 -14.13932434 103.24847931 -14.1444397 102.18104553 C-14.1590664 98.74756206 -14.16586386 95.31412477 -14.17138672 91.88061523 C-14.17713733 89.49791462 -14.18289507 87.11521401 -14.18865967 84.73251343 C-14.19917081 79.73402694 -14.20501288 74.73555654 -14.20849609 69.73706055 C-14.21398395 63.32877278 -14.23801792 56.92069715 -14.26646805 50.51247597 C-14.28508036 45.59001033 -14.29029926 40.66759597 -14.29183197 35.74509811 C-14.29486171 33.38237726 -14.30290101 31.01965737 -14.31601715 28.65697098 C-14.33304942 25.35326173 -14.33120418 22.05007309 -14.32470703 18.74633789 C-14.33392181 17.76849838 -14.3431366 16.79065887 -14.35263062 15.78318787 C-14.31472486 9.63803512 -13.63815061 6.12767983 -9.21627808 1.61680603 C-6.06769939 -0.08178 -3.56897729 0.01540072 0 0 Z " fill="none" transform="translate(592.96826171875,286.595947265625)"/>
<path d="M0 0 C10.89326849 -0.49575761 22.62933807 2.28285279 31.09375 9.51171875 C31.67769531 10.07890625 32.26164063 10.64609375 32.86328125 11.23046875 C33.56066406 11.90078125 34.25804687 12.57109375 34.9765625 13.26171875 C43.62185481 22.23891442 46.04196437 31.88370355 46.05078125 43.98046875 C46.06302734 44.84929687 46.07527344 45.718125 46.08789062 46.61328125 C46.11475114 58.53934774 42.38367616 69.86936315 34.05078125 78.66796875 C23.02191775 88.71695213 9.78619194 91.04276158 -4.71875 90.578125 C-14.46955962 89.99143622 -23.02896983 86.98793846 -30.13671875 80.23046875 C-30.89855469 79.52019531 -31.66039062 78.80992187 -32.4453125 78.078125 C-38.59051975 71.85219253 -41.53422241 65.51430753 -44.13671875 57.23046875 C-44.63171875 55.74546875 -44.63171875 55.74546875 -45.13671875 54.23046875 C-46.06769709 39.48743475 -44.90949305 26.79233983 -35.48046875 14.7421875 C-24.99938864 3.50996331 -14.6461059 1.07611488 0 0 Z " fill="none" transform="translate(948.13671875,321.76953125)"/>
<path d="M0 0 C3.12441334 2.28201618 5.19452254 4.32426308 5.84375 8.30078125 C6.12839013 16.87556502 6.12839013 16.87556502 2.9375 20.5 C0.14061602 22.71419982 -2.41987486 23.73960175 -6.078125 23.484375 C-10.82349965 22.20103469 -15.09101534 19.77395648 -19.390625 17.44140625 C-27.22153177 13.41986915 -37.24792828 13.74054507 -45.77734375 15.4609375 C-54.49743029 18.32278918 -60.34949446 23.17206879 -65 31.0625 C-70.80545771 43.70163001 -69.62476059 60.93291581 -65.93359375 74.046875 C-62.79159289 82.16221437 -57.29663992 88.25371713 -49.3828125 91.78515625 C-39.07294695 95.41896132 -27.61359896 95.05151373 -17.5625 90.8125 C-15.82539558 89.93215749 -14.09618965 89.0360658 -12.375 88.125 C-8.21833675 85.98487135 -5.30504084 84.90047292 -0.5625 85.8125 C2.39642411 87.63337637 4.85737473 89.65224946 6.4375 92.8125 C7.05091782 96.27167061 7.14601936 99.36299333 6.4375 102.8125 C2.5706072 108.1457989 -3.54970046 111.40944289 -9.5625 113.8125 C-10.42746094 114.18503906 -11.29242187 114.55757813 -12.18359375 114.94140625 C-19.43953946 117.649412 -26.05376302 118.17458902 -33.75 118.1875 C-35.12115967 118.18991699 -35.12115967 118.18991699 -36.52001953 118.19238281 C-52.78267572 117.92871157 -68.25833369 112.78256105 -80.3125 101.5625 C-94.44725203 86.3456617 -98.24148589 67.3565886 -97.875 47.3125 C-97.22415077 31.54025372 -90.58285603 17.08829474 -79.5625 5.8125 C-58.14048543 -13.10007858 -24.12181583 -15.30143802 0 0 Z " fill="none" transform="translate(1106.5625,294.1875)"/>
<path d="M0 0 C4.56398877 2.6062456 8.0351939 5.85085393 11.5 9.75 C11.97630859 10.2756958 12.45261719 10.8013916 12.94335938 11.34301758 C16.14351275 14.91590369 19.08391534 18.602229 21.78125 22.57421875 C23.04588227 24.30177045 23.04588227 24.30177045 26 25 C26.24363281 24.44828125 26.48726562 23.8965625 26.73828125 23.328125 C29.40843536 18.40115332 33.40177157 14.26958366 37 10 C37.67417969 9.19949219 38.34835937 8.39898437 39.04296875 7.57421875 C45.39994501 0.1600055 45.39994501 0.1600055 50.75 -0.375 C55.44588065 -0.26236818 58.18119702 1.32683791 62 4 C64.56304503 7.84456754 64.59070523 9.4220345 64 14 C60.44604996 21.28357061 54.45902448 27.12468943 49 33 C47.65879585 34.45109797 46.32471671 35.9088351 45 37.375 C44.443125 37.98085938 43.88625 38.58671875 43.3125 39.2109375 C41.79854458 41.27460293 41.08794375 42.42520231 41 45 C42.56141351 47.32230492 42.56141351 47.32230492 44.875 49.5625 C49.08205516 54.00473215 53.02171423 58.56191494 56.84765625 63.3359375 C58.23797997 65.05681005 59.66084059 66.75211692 61.12109375 68.4140625 C66.42838041 74.629034 66.42838041 74.629034 66.6875 79.25 C65.93230092 83.36926772 65.02575689 85.14714351 62 88 C59.01836682 88.99387773 56.75006754 89.26369622 53.625 89.375 C52.68914062 89.42398438 51.75328125 89.47296875 50.7890625 89.5234375 C46.88869384 88.79143554 45.58934082 86.95518175 43 84 C42.11441406 83.06542969 41.22882812 82.13085938 40.31640625 81.16796875 C26 65.7471467 26 65.7471467 26 62 C25.01 62 24.02 62 23 62 C22.78859375 62.51949219 22.5771875 63.03898437 22.359375 63.57421875 C20.42031876 67.03443117 17.85818231 69.83853602 15.25 72.8125 C14.73695313 73.40353516 14.22390625 73.99457031 13.6953125 74.60351562 C12.65844294 75.79799978 11.61962026 76.99079132 10.57885742 78.18188477 C8.46850078 80.61204185 6.39201759 83.07051025 4.31860352 85.53222656 C1.10815064 89.10586897 -1.80722169 90.19749032 -6.5 90.5 C-10.22315257 90.38830542 -10.90698688 90.07363538 -14 87.625 C-16.72098994 84.0537007 -17.76731924 81.34547732 -17.73046875 76.75390625 C-16.22180826 71.06617552 -11.41070179 66.85111584 -7.48388672 62.62988281 C-5.24823415 60.1742697 -3.19830595 57.59425467 -1.125 55 C1.72982698 51.43960742 4.73256978 48.1877368 8 45 C6.45673578 41.37958555 4.26097295 38.96595232 1.5625 36.125 C-2.52458872 31.71022924 -6.35400128 27.17433388 -10.0625 22.4375 C-10.53937256 21.82986816 -11.01624512 21.22223633 -11.50756836 20.59619141 C-15.31243106 15.69818451 -16.53531527 13.31672016 -16 7 C-12.19078542 0.87804799 -7.22795172 -1.51761264 0 0 Z " fill="none" transform="translate(695,322)"/>
<path d="M0 0 C38.08883827 0 38.08883827 0 48.91015625 9.71484375 C56.04457849 17.12191907 58.49156576 25.93508555 58.49804688 36.05859375 C58.47806641 37.07050781 58.45808594 38.08242188 58.4375 39.125 C58.44458984 40.14464844 58.45167969 41.16429687 58.45898438 42.21484375 C58.37062485 52.8043934 55.51847975 61.57188073 48.578125 69.65625 C35.17459862 82.66165183 17.15805408 79 0 79 C0 52.93 0 26.86 0 0 Z " fill="#ffffff" transform="translate(1159,309)"/>
<path d="M0 0 C5.42250313 2.51759074 9.41194031 6.86814709 12.12109375 12.2109375 C13.22834809 15.7246246 13.34267193 19.03971403 13.3125 22.6875 C13.30404053 23.74988892 13.30404053 23.74988892 13.29541016 24.83374023 C13.09711002 33.44997926 11.4657873 40.11528662 5.59765625 46.625 C0.95438915 50.62116142 -3.78906396 50.6039299 -9.73046875 50.50390625 C-14.05521625 49.8373681 -16.21607757 48.29544429 -19.31640625 45.3125 C-24.28295672 38.49069518 -25.64477224 32.90885401 -25.5 24.5 C-25.51546875 23.60152344 -25.5309375 22.70304687 -25.546875 21.77734375 C-25.50797023 15.0954501 -24.26842183 9.35935734 -19.48193359 4.43969727 C-13.32812413 -0.83432874 -7.8873854 -0.68293215 0 0 Z " fill="#ffffff" transform="translate(955,342)"/>
<path d="M0 0 C0.66 0.33 1.32 0.66 2 1 C1.22914062 1.75925781 0.45828125 2.51851563 -0.3359375 3.30078125 C-1.34909096 4.30455366 -2.36210448 5.30846732 -3.375 6.3125 C-3.88289063 6.81201172 -4.39078125 7.31152344 -4.9140625 7.82617188 C-7.22854133 10.12542387 -9.18347483 12.27521225 -11 15 C-11.66 14.67 -12.32 14.34 -13 14 C-11.77801556 12.41111701 -10.54705525 10.82913536 -9.3125 9.25 C-8.28576172 7.92742187 -8.28576172 7.92742187 -7.23828125 6.578125 C-5.01538057 4.01771584 -2.70749594 2.02943654 0 0 Z " fill="none" transform="translate(1032,296)"/>
<path d="M0 0 C0.66 0.99 1.32 1.98 2 3 C1.31164062 3.56267578 1.31164062 3.56267578 0.609375 4.13671875 C-3.03296109 7.17454948 -6.17191907 10.15380993 -9 14 C-9.66 13.67 -10.32 13.34 -11 13 C-7.37 8.71 -3.74 4.42 0 0 Z " fill="none" transform="translate(693,378)"/>
<path d="M0 0 C0.66 0 1.32 0 2 0 C0.55746343 3.36591866 -1.33264727 5.51047079 -4 8 C-4.33 7.34 -4.66 6.68 -5 6 C-3.38405168 3.95880212 -1.7143618 1.95927063 0 0 Z " fill="none" transform="translate(917,332)"/>
</svg>
